<?xml version="1.0" encoding="UTF-8"?>
<svg xmlns="http://www.w3.org/2000/svg" xmlns:xlink="http://www.w3.org/1999/xlink" width="288pt" height="288pt" viewBox="0 0 288 288" version="1.1">
<defs>
<clipPath id="clip1">
  <path d="M 30.601562 9.90625 L 270.992188 9.90625 L 270.992188 279.742188 L 30.601562 279.742188 Z M 30.601562 9.90625 "/>
</clipPath>
<clipPath id="clip2">
  <path d="M 30.601562 279 L 270.992188 279 L 270.992188 279.742188 L 30.601562 279.742188 Z M 30.601562 279 "/>
</clipPath>
<clipPath id="clip3">
  <path d="M 41 34 L 60 34 L 60 279.742188 L 41 279.742188 Z M 41 34 "/>
</clipPath>
<clipPath id="clip4">
  <path d="M 41 34 L 61 34 L 61 279.742188 L 41 279.742188 Z M 41 34 "/>
</clipPath>
<clipPath id="clip5">
  <path d="M 61 193 L 80 193 L 80 279.742188 L 61 279.742188 Z M 61 193 "/>
</clipPath>
<clipPath id="clip6">
  <path d="M 61 192 L 81 192 L 81 279.742188 L 61 279.742188 Z M 61 192 "/>
</clipPath>
<clipPath id="clip7">
  <path d="M 81 240 L 100 240 L 100 279.742188 L 81 279.742188 Z M 81 240 "/>
</clipPath>
<clipPath id="clip8">
  <path d="M 81 240 L 101 240 L 101 279.742188 L 81 279.742188 Z M 81 240 "/>
</clipPath>
<clipPath id="clip9">
  <path d="M 101 260 L 120 260 L 120 279.742188 L 101 279.742188 Z M 101 260 "/>
</clipPath>
<clipPath id="clip10">
  <path d="M 101 259 L 121 259 L 121 279.742188 L 101 279.742188 Z M 101 259 "/>
</clipPath>
<clipPath id="clip11">
  <path d="M 121 265 L 140 265 L 140 279.742188 L 121 279.742188 Z M 121 265 "/>
</clipPath>
<clipPath id="clip12">
  <path d="M 121 264 L 141 264 L 141 279.742188 L 121 279.742188 Z M 121 264 "/>
</clipPath>
<clipPath id="clip13">
  <path d="M 141 270 L 160 270 L 160 279.742188 L 141 279.742188 Z M 141 270 "/>
</clipPath>
<clipPath id="clip14">
  <path d="M 141 269 L 161 269 L 161 279.742188 L 141 279.742188 Z M 141 269 "/>
</clipPath>
<clipPath id="clip15">
  <path d="M 161 273 L 180 273 L 180 279.742188 L 161 279.742188 Z M 161 273 "/>
</clipPath>
<clipPath id="clip16">
  <path d="M 161 272 L 181 272 L 181 279.742188 L 161 279.742188 Z M 161 272 "/>
</clipPath>
<clipPath id="clip17">
  <path d="M 181 275 L 200 275 L 200 279.742188 L 181 279.742188 Z M 181 275 "/>
</clipPath>
<clipPath id="clip18">
  <path d="M 181 275 L 201 275 L 201 279.742188 L 181 279.742188 Z M 181 275 "/>
</clipPath>
<clipPath id="clip19">
  <path d="M 201 278 L 220 278 L 220 279.742188 L 201 279.742188 Z M 201 278 "/>
</clipPath>
<clipPath id="clip20">
  <path d="M 201 278 L 221 278 L 221 279.742188 L 201 279.742188 Z M 201 278 "/>
</clipPath>
<clipPath id="clip21">
  <path d="M 221 279 L 240 279 L 240 279.742188 L 221 279.742188 Z M 221 279 "/>
</clipPath>
<clipPath id="clip22">
  <path d="M 221 278 L 241 278 L 241 279.742188 L 221 279.742188 Z M 221 278 "/>
</clipPath>
<clipPath id="clip23">
  <path d="M 241 279 L 260 279 L 260 279.742188 L 241 279.742188 Z M 241 279 "/>
</clipPath>
<clipPath id="clip24">
  <path d="M 241 279 L 261 279 L 261 279.742188 L 241 279.742188 Z M 241 279 "/>
</clipPath>
</defs>
<g id="surface188">
<rect x="0" y="0" width="288" height="288" style="fill:rgb(100%,100%,100%);fill-opacity:1;stroke:none;"/>
<path style=" stroke:none;fill-rule:nonzero;fill:rgb(0%,0%,0%);fill-opacity:1;" d="M 133.792969 6.066406 L 133.792969 6.238281 L 133.789062 6.410156 L 133.765625 6.738281 L 133.75 6.898438 L 133.730469 7.058594 L 133.707031 7.214844 L 133.683594 7.367188 L 133.652344 7.515625 L 133.617188 7.664062 L 133.582031 7.808594 L 133.542969 7.949219 L 133.5 8.085938 L 133.453125 8.214844 L 133.402344 8.34375 L 133.347656 8.46875 L 133.289062 8.589844 L 133.226562 8.703125 L 133.160156 8.816406 L 133.089844 8.921875 L 133.015625 9.027344 L 132.941406 9.125 L 132.859375 9.21875 L 132.773438 9.308594 L 132.683594 9.394531 L 132.589844 9.472656 L 132.492188 9.550781 L 132.390625 9.621094 L 132.285156 9.691406 L 132.175781 9.753906 L 132.066406 9.808594 L 131.949219 9.859375 L 131.828125 9.902344 L 131.707031 9.941406 L 131.578125 9.972656 L 131.445312 10 L 131.308594 10.019531 L 131.167969 10.035156 L 131.023438 10.042969 L 130.875 10.046875 L 130.808594 10.046875 L 130.742188 10.042969 L 130.671875 10.042969 L 130.605469 10.035156 L 130.539062 10.03125 L 130.472656 10.023438 L 130.402344 10.011719 L 130.335938 10.003906 L 130.269531 9.992188 L 130.070312 9.945312 L 130.003906 9.925781 L 129.878906 9.886719 L 129.816406 9.863281 L 129.753906 9.835938 L 129.691406 9.8125 L 129.628906 9.78125 L 129.570312 9.753906 L 129.507812 9.71875 L 129.390625 9.648438 L 129.332031 9.609375 L 129.222656 9.523438 L 129.164062 9.480469 L 129.113281 9.433594 L 129.058594 9.386719 L 128.957031 9.285156 L 128.90625 9.230469 L 128.859375 9.171875 L 128.816406 9.109375 L 128.769531 9.046875 L 128.726562 8.980469 L 128.6875 8.914062 L 128.644531 8.84375 L 128.605469 8.773438 L 128.570312 8.699219 L 128.527344 8.699219 L 128.527344 8.707031 L 128.53125 8.714844 L 128.53125 8.726562 L 128.535156 8.742188 L 128.535156 8.777344 L 128.539062 8.796875 L 128.539062 8.847656 L 128.542969 8.875 L 128.542969 8.933594 L 128.546875 8.960938 L 128.546875 8.992188 L 128.550781 9.027344 L 128.550781 9.09375 L 128.554688 9.128906 L 128.554688 9.203125 L 128.558594 9.242188 L 128.558594 9.355469 L 128.5625 9.394531 L 128.5625 9.636719 L 128.566406 9.679688 L 128.566406 9.792969 L 128.570312 9.832031 L 128.570312 12.894531 L 126.59375 12.894531 L 126.59375 3.710938 L 126.589844 3.601562 L 126.589844 3.5 L 126.585938 3.394531 L 126.582031 3.296875 L 126.582031 3.195312 L 126.574219 3.007812 L 126.566406 2.835938 L 126.5625 2.753906 L 126.5625 2.675781 L 126.558594 2.601562 L 126.550781 2.46875 L 126.542969 2.351562 L 126.539062 2.300781 L 128.457031 2.300781 L 128.460938 2.308594 L 128.464844 2.324219 L 128.464844 2.335938 L 128.46875 2.351562 L 128.472656 2.371094 L 128.472656 2.390625 L 128.484375 2.460938 L 128.484375 2.488281 L 128.488281 2.519531 L 128.492188 2.546875 L 128.503906 2.640625 L 128.503906 2.671875 L 128.511719 2.742188 L 128.511719 2.777344 L 128.515625 2.8125 L 128.515625 2.847656 L 128.519531 2.886719 L 128.519531 2.921875 L 128.527344 3 L 128.527344 3.035156 L 128.53125 3.074219 L 128.53125 3.113281 L 128.535156 3.152344 L 128.535156 3.230469 L 128.539062 3.269531 L 128.539062 3.410156 L 128.542969 3.445312 L 128.542969 3.535156 L 128.570312 3.535156 L 128.644531 3.390625 L 128.722656 3.253906 L 128.808594 3.125 L 128.898438 3.003906 L 128.996094 2.890625 L 129.097656 2.789062 L 129.203125 2.695312 L 129.316406 2.609375 L 129.433594 2.53125 L 129.554688 2.460938 L 129.679688 2.398438 L 129.8125 2.34375 L 129.949219 2.296875 L 130.085938 2.253906 L 130.230469 2.21875 L 130.375 2.1875 L 130.527344 2.167969 L 130.679688 2.152344 L 130.839844 2.140625 L 131.003906 2.136719 L 131.144531 2.140625 L 131.285156 2.148438 L 131.417969 2.164062 L 131.550781 2.183594 L 131.679688 2.210938 L 131.800781 2.242188 L 131.921875 2.28125 L 132.148438 2.375 L 132.359375 2.492188 L 132.457031 2.558594 L 132.554688 2.628906 L 132.644531 2.703125 L 132.734375 2.785156 L 132.820312 2.867188 L 132.898438 2.957031 L 132.976562 3.050781 L 133.050781 3.148438 L 133.117188 3.25 L 133.1875 3.355469 L 133.25 3.464844 L 133.308594 3.578125 L 133.367188 3.699219 L 133.417969 3.820312 L 133.464844 3.945312 L 133.511719 4.078125 L 133.554688 4.210938 L 133.625 4.492188 L 133.65625 4.636719 L 133.6875 4.785156 L 133.734375 5.089844 L 133.753906 5.246094 L 133.765625 5.402344 L 133.789062 5.730469 L 133.792969 5.898438 Z M 131.734375 6.066406 L 131.730469 5.816406 L 131.71875 5.574219 L 131.699219 5.347656 L 131.671875 5.136719 L 131.636719 4.9375 L 131.59375 4.75 L 131.542969 4.578125 L 131.480469 4.417969 L 131.414062 4.273438 L 131.339844 4.140625 L 131.257812 4.019531 L 131.167969 3.914062 L 131.070312 3.820312 L 130.964844 3.738281 L 130.851562 3.667969 L 130.730469 3.609375 L 130.597656 3.566406 L 130.460938 3.535156 L 130.316406 3.515625 L 130.164062 3.507812 L 130.105469 3.511719 L 130.046875 3.511719 L 129.929688 3.527344 L 129.871094 3.539062 L 129.753906 3.570312 L 129.695312 3.589844 L 129.632812 3.609375 L 129.574219 3.636719 L 129.519531 3.660156 L 129.460938 3.691406 L 129.40625 3.722656 L 129.355469 3.761719 L 129.300781 3.800781 L 129.25 3.84375 L 129.199219 3.890625 L 129.148438 3.945312 L 129.101562 4 L 129.054688 4.058594 L 129.011719 4.117188 L 128.96875 4.183594 L 128.925781 4.253906 L 128.886719 4.328125 L 128.847656 4.40625 L 128.8125 4.488281 L 128.777344 4.574219 L 128.746094 4.664062 L 128.710938 4.757812 L 128.65625 4.960938 L 128.632812 5.070312 L 128.609375 5.183594 L 128.59375 5.300781 L 128.578125 5.425781 L 128.5625 5.554688 L 128.554688 5.6875 L 128.546875 5.828125 L 128.542969 5.972656 L 128.542969 6.269531 L 128.546875 6.414062 L 128.554688 6.550781 L 128.5625 6.679688 L 128.578125 6.808594 L 128.59375 6.929688 L 128.609375 7.046875 L 128.632812 7.160156 L 128.65625 7.265625 L 128.683594 7.367188 L 128.710938 7.464844 L 128.742188 7.558594 L 128.773438 7.644531 L 128.808594 7.730469 L 128.84375 7.8125 L 128.921875 7.960938 L 128.960938 8.03125 L 129.046875 8.15625 L 129.09375 8.214844 L 129.144531 8.269531 L 129.242188 8.367188 L 129.292969 8.410156 L 129.402344 8.488281 L 129.511719 8.550781 L 129.570312 8.578125 L 129.625 8.601562 L 129.742188 8.640625 L 129.800781 8.65625 L 129.917969 8.679688 L 129.976562 8.6875 L 130.152344 8.699219 L 130.300781 8.691406 L 130.441406 8.675781 L 130.511719 8.660156 L 130.578125 8.644531 L 130.640625 8.625 L 130.707031 8.601562 L 130.765625 8.578125 L 130.828125 8.550781 L 130.886719 8.515625 L 130.941406 8.480469 L 130.996094 8.441406 L 131.097656 8.355469 L 131.191406 8.253906 L 131.238281 8.199219 L 131.277344 8.140625 L 131.320312 8.078125 L 131.359375 8.011719 L 131.398438 7.941406 L 131.433594 7.867188 L 131.464844 7.792969 L 131.5 7.710938 L 131.527344 7.628906 L 131.582031 7.449219 L 131.605469 7.355469 L 131.628906 7.257812 L 131.648438 7.15625 L 131.667969 7.050781 L 131.683594 6.941406 L 131.695312 6.828125 L 131.707031 6.710938 L 131.71875 6.589844 L 131.722656 6.464844 L 131.730469 6.335938 L 131.734375 6.203125 Z M 131.734375 6.066406 "/>
<path style=" stroke:none;fill-rule:nonzero;fill:rgb(0%,0%,0%);fill-opacity:1;" d="M 138.5625 10.046875 L 138.382812 10.042969 L 138.207031 10.035156 L 138.039062 10.023438 L 137.871094 10.003906 L 137.710938 9.976562 L 137.554688 9.945312 L 137.402344 9.910156 L 137.253906 9.867188 L 137.109375 9.820312 L 136.972656 9.765625 L 136.839844 9.707031 L 136.710938 9.644531 L 136.585938 9.578125 L 136.46875 9.503906 L 136.355469 9.425781 L 136.242188 9.34375 L 136.136719 9.257812 L 136.035156 9.167969 L 135.847656 8.972656 L 135.757812 8.867188 L 135.675781 8.757812 L 135.597656 8.644531 L 135.523438 8.527344 L 135.453125 8.40625 L 135.386719 8.28125 L 135.328125 8.152344 L 135.269531 8.019531 L 135.21875 7.882812 L 135.171875 7.742188 L 135.128906 7.59375 L 135.089844 7.445312 L 135.058594 7.292969 L 135.027344 7.136719 L 135.003906 6.980469 L 134.984375 6.820312 L 134.96875 6.65625 L 134.957031 6.488281 L 134.949219 6.316406 L 134.945312 6.144531 L 134.949219 5.957031 L 134.957031 5.773438 L 134.96875 5.59375 L 134.988281 5.417969 L 135.007812 5.25 L 135.035156 5.082031 L 135.066406 4.917969 L 135.105469 4.761719 L 135.148438 4.609375 L 135.195312 4.457031 L 135.246094 4.3125 L 135.300781 4.167969 L 135.359375 4.03125 L 135.425781 3.898438 L 135.492188 3.773438 L 135.566406 3.648438 L 135.644531 3.53125 L 135.726562 3.417969 L 135.8125 3.308594 L 135.902344 3.207031 L 136 3.105469 L 136.097656 3.011719 L 136.199219 2.921875 L 136.308594 2.835938 L 136.421875 2.753906 L 136.535156 2.679688 L 136.65625 2.609375 L 136.78125 2.542969 L 136.910156 2.480469 L 137.042969 2.425781 L 137.179688 2.375 L 137.324219 2.328125 L 137.46875 2.289062 L 137.617188 2.253906 L 137.769531 2.226562 L 137.925781 2.203125 L 138.085938 2.183594 L 138.25 2.167969 L 138.417969 2.160156 L 138.734375 2.160156 L 138.878906 2.167969 L 139.015625 2.175781 L 139.152344 2.191406 L 139.285156 2.207031 L 139.414062 2.230469 L 139.539062 2.253906 L 139.664062 2.285156 L 139.78125 2.316406 L 139.898438 2.355469 L 140.011719 2.394531 L 140.230469 2.488281 L 140.332031 2.535156 L 140.433594 2.589844 L 140.53125 2.644531 L 140.625 2.703125 L 140.804688 2.828125 L 140.890625 2.898438 L 140.96875 2.964844 L 141.046875 3.035156 L 141.121094 3.109375 L 141.195312 3.1875 L 141.261719 3.265625 L 141.328125 3.347656 L 141.390625 3.429688 L 141.449219 3.519531 L 141.503906 3.605469 L 141.605469 3.792969 L 141.652344 3.886719 L 141.699219 3.984375 L 141.777344 4.179688 L 141.8125 4.28125 L 141.839844 4.382812 L 141.871094 4.484375 L 141.894531 4.589844 L 141.914062 4.695312 L 139.925781 4.796875 L 139.90625 4.679688 L 139.882812 4.570312 L 139.851562 4.464844 L 139.816406 4.367188 L 139.777344 4.273438 L 139.734375 4.179688 L 139.683594 4.09375 L 139.628906 4.015625 L 139.570312 3.9375 L 139.503906 3.867188 L 139.433594 3.800781 L 139.355469 3.742188 L 139.277344 3.6875 L 139.1875 3.640625 L 139.097656 3.605469 L 138.996094 3.570312 L 138.894531 3.546875 L 138.785156 3.53125 L 138.667969 3.519531 L 138.546875 3.515625 L 138.394531 3.523438 L 138.246094 3.542969 L 138.109375 3.574219 L 137.980469 3.621094 L 137.859375 3.679688 L 137.75 3.75 L 137.644531 3.835938 L 137.550781 3.933594 L 137.464844 4.046875 L 137.386719 4.167969 L 137.316406 4.304688 L 137.253906 4.453125 L 137.199219 4.613281 L 137.152344 4.789062 L 137.113281 4.972656 L 137.078125 5.167969 L 137.054688 5.375 L 137.035156 5.59375 L 137.023438 5.824219 L 137.023438 6.066406 L 137.035156 6.566406 L 137.082031 7.015625 L 137.160156 7.410156 L 137.269531 7.75 L 137.410156 8.039062 L 137.582031 8.277344 L 137.78125 8.460938 L 138.015625 8.59375 L 138.28125 8.671875 L 138.574219 8.699219 L 138.6875 8.695312 L 138.792969 8.683594 L 138.894531 8.667969 L 138.996094 8.640625 L 139.09375 8.609375 L 139.183594 8.570312 L 139.273438 8.527344 L 139.359375 8.472656 L 139.441406 8.414062 L 139.515625 8.347656 L 139.589844 8.269531 L 139.65625 8.1875 L 139.71875 8.101562 L 139.773438 8.003906 L 139.824219 7.902344 L 139.871094 7.792969 L 139.90625 7.675781 L 139.941406 7.550781 L 139.96875 7.421875 L 139.988281 7.285156 L 141.972656 7.375 L 141.957031 7.480469 L 141.9375 7.585938 L 141.914062 7.6875 L 141.886719 7.789062 L 141.855469 7.894531 L 141.820312 7.992188 L 141.785156 8.09375 L 141.742188 8.191406 L 141.648438 8.386719 L 141.597656 8.484375 L 141.542969 8.574219 L 141.484375 8.664062 L 141.421875 8.753906 L 141.355469 8.839844 L 141.285156 8.925781 L 141.214844 9.007812 L 141.058594 9.164062 L 140.886719 9.3125 L 140.796875 9.378906 L 140.703125 9.445312 L 140.605469 9.507812 L 140.503906 9.570312 L 140.402344 9.628906 L 140.292969 9.683594 L 140.066406 9.785156 L 139.824219 9.871094 L 139.699219 9.90625 L 139.566406 9.941406 L 139.433594 9.96875 L 139.296875 9.992188 L 139.15625 10.011719 L 139.015625 10.027344 L 138.867188 10.039062 L 138.714844 10.046875 Z M 138.5625 10.046875 "/>
<path style=" stroke:none;fill-rule:nonzero;fill:rgb(0%,0%,0%);fill-opacity:1;" d="M 145.15625 10.046875 L 145.046875 10.046875 L 144.941406 10.042969 L 144.835938 10.035156 L 144.734375 10.023438 L 144.636719 10.011719 L 144.539062 9.996094 L 144.445312 9.976562 L 144.351562 9.953125 L 144.261719 9.929688 L 144.171875 9.898438 L 144.085938 9.867188 L 144.003906 9.832031 L 143.925781 9.796875 L 143.847656 9.753906 L 143.773438 9.710938 L 143.703125 9.667969 L 143.632812 9.617188 L 143.566406 9.566406 L 143.441406 9.457031 L 143.382812 9.398438 L 143.324219 9.332031 L 143.273438 9.269531 L 143.222656 9.199219 L 143.175781 9.128906 L 143.128906 9.054688 L 143.085938 8.976562 L 143.046875 8.898438 L 142.976562 8.734375 L 142.945312 8.644531 L 142.917969 8.554688 L 142.894531 8.464844 L 142.875 8.371094 L 142.855469 8.273438 L 142.839844 8.175781 L 142.828125 8.074219 L 142.820312 7.96875 L 142.816406 7.863281 L 142.816406 7.621094 L 142.824219 7.496094 L 142.835938 7.371094 L 142.851562 7.25 L 142.898438 7.023438 L 142.929688 6.917969 L 142.964844 6.816406 L 143.003906 6.71875 L 143.046875 6.625 L 143.097656 6.53125 L 143.148438 6.445312 L 143.265625 6.28125 L 143.328125 6.207031 L 143.394531 6.132812 L 143.464844 6.0625 L 143.539062 5.996094 L 143.613281 5.9375 L 143.777344 5.820312 L 143.863281 5.769531 L 143.953125 5.71875 L 144.042969 5.671875 L 144.136719 5.628906 L 144.234375 5.589844 L 144.4375 5.519531 L 144.542969 5.488281 L 144.648438 5.464844 L 144.761719 5.4375 L 144.871094 5.414062 L 144.984375 5.394531 L 145.101562 5.375 L 145.214844 5.363281 L 145.332031 5.347656 L 145.695312 5.324219 L 145.816406 5.324219 L 147.457031 5.292969 L 147.457031 4.828125 L 147.453125 4.746094 L 147.445312 4.597656 L 147.4375 4.527344 L 147.429688 4.460938 L 147.417969 4.394531 L 147.40625 4.335938 L 147.394531 4.273438 L 147.347656 4.109375 L 147.328125 4.058594 L 147.3125 4.011719 L 147.289062 3.964844 L 147.269531 3.917969 L 147.246094 3.875 L 147.222656 3.835938 L 147.195312 3.796875 L 147.140625 3.726562 L 147.078125 3.664062 L 147.042969 3.636719 L 146.9375 3.566406 L 146.898438 3.546875 L 146.859375 3.53125 L 146.773438 3.5 L 146.644531 3.464844 L 146.597656 3.457031 L 146.546875 3.449219 L 146.5 3.445312 L 146.398438 3.4375 L 146.296875 3.4375 L 146.25 3.441406 L 146.203125 3.441406 L 146.109375 3.449219 L 146.066406 3.457031 L 146.023438 3.460938 L 145.984375 3.46875 L 145.941406 3.476562 L 145.863281 3.5 L 145.792969 3.523438 L 145.722656 3.554688 L 145.660156 3.59375 L 145.628906 3.617188 L 145.601562 3.640625 L 145.570312 3.664062 L 145.542969 3.6875 L 145.515625 3.714844 L 145.492188 3.742188 L 145.46875 3.773438 L 145.441406 3.804688 L 145.421875 3.839844 L 145.398438 3.875 L 145.339844 3.992188 L 145.308594 4.078125 L 145.292969 4.125 L 145.28125 4.175781 L 145.265625 4.226562 L 145.257812 4.277344 L 145.246094 4.335938 L 145.234375 4.390625 L 145.21875 4.515625 L 143.160156 4.414062 L 143.199219 4.21875 L 143.222656 4.125 L 143.25 4.03125 L 143.28125 3.9375 L 143.3125 3.847656 L 143.347656 3.761719 L 143.425781 3.589844 L 143.46875 3.507812 L 143.515625 3.425781 L 143.566406 3.347656 L 143.621094 3.269531 L 143.675781 3.195312 L 143.738281 3.121094 L 143.800781 3.050781 L 143.867188 2.984375 L 143.9375 2.917969 L 144.011719 2.851562 L 144.085938 2.792969 L 144.167969 2.730469 L 144.253906 2.675781 L 144.34375 2.621094 L 144.4375 2.570312 L 144.53125 2.523438 L 144.734375 2.4375 L 144.839844 2.398438 L 144.953125 2.359375 L 145.066406 2.328125 L 145.183594 2.296875 L 145.304688 2.265625 L 145.5625 2.21875 L 145.699219 2.199219 L 145.835938 2.1875 L 145.980469 2.171875 L 146.125 2.164062 L 146.273438 2.160156 L 146.570312 2.160156 L 146.707031 2.164062 L 146.972656 2.1875 L 147.101562 2.203125 L 147.226562 2.222656 L 147.347656 2.246094 L 147.464844 2.269531 L 147.582031 2.300781 L 147.695312 2.335938 L 147.804688 2.371094 L 147.910156 2.410156 L 148.113281 2.503906 L 148.207031 2.554688 L 148.300781 2.609375 L 148.390625 2.667969 L 148.476562 2.726562 L 148.558594 2.792969 L 148.636719 2.863281 L 148.710938 2.933594 L 148.785156 3.007812 L 148.851562 3.082031 L 148.917969 3.164062 L 148.976562 3.246094 L 149.035156 3.332031 L 149.089844 3.421875 L 149.140625 3.515625 L 149.226562 3.710938 L 149.265625 3.816406 L 149.300781 3.921875 L 149.332031 4.03125 L 149.359375 4.144531 L 149.378906 4.257812 L 149.398438 4.378906 L 149.414062 4.5 L 149.421875 4.625 L 149.429688 4.753906 L 149.429688 7.65625 L 149.433594 7.710938 L 149.433594 7.863281 L 149.4375 7.910156 L 149.4375 7.957031 L 149.441406 8.003906 L 149.445312 8.046875 L 149.449219 8.09375 L 149.453125 8.136719 L 149.457031 8.175781 L 149.464844 8.21875 L 149.472656 8.257812 L 149.480469 8.292969 L 149.488281 8.332031 L 149.5 8.367188 L 149.507812 8.398438 L 149.519531 8.433594 L 149.53125 8.464844 L 149.542969 8.492188 L 149.589844 8.574219 L 149.609375 8.597656 L 149.625 8.617188 L 149.644531 8.640625 L 149.667969 8.660156 L 149.6875 8.679688 L 149.734375 8.710938 L 149.761719 8.726562 L 149.789062 8.738281 L 149.816406 8.746094 L 149.847656 8.757812 L 149.878906 8.765625 L 149.910156 8.769531 L 149.945312 8.777344 L 149.980469 8.777344 L 150.019531 8.78125 L 150.148438 8.78125 L 150.234375 8.773438 L 150.277344 8.773438 L 150.324219 8.765625 L 150.367188 8.761719 L 150.410156 8.753906 L 150.449219 8.746094 L 150.492188 8.738281 L 150.492188 9.808594 L 150.457031 9.816406 L 150.425781 9.824219 L 150.390625 9.832031 L 150.234375 9.871094 L 150.207031 9.878906 L 150.175781 9.886719 L 150.148438 9.894531 L 150.121094 9.898438 L 150.09375 9.90625 L 150.066406 9.910156 L 150.035156 9.917969 L 150.007812 9.921875 L 149.980469 9.929688 L 149.925781 9.9375 L 149.894531 9.941406 L 149.839844 9.949219 L 149.808594 9.953125 L 149.78125 9.957031 L 149.65625 9.972656 L 149.625 9.972656 L 149.5625 9.980469 L 149.527344 9.980469 L 149.496094 9.984375 L 149.460938 9.988281 L 149.347656 9.988281 L 149.308594 9.992188 L 149.226562 9.992188 L 149.082031 9.988281 L 148.945312 9.976562 L 148.816406 9.957031 L 148.695312 9.933594 L 148.578125 9.898438 L 148.472656 9.859375 L 148.375 9.8125 L 148.28125 9.757812 L 148.199219 9.695312 L 148.125 9.625 L 148.054688 9.550781 L 147.996094 9.464844 L 147.9375 9.375 L 147.886719 9.277344 L 147.84375 9.175781 L 147.804688 9.0625 L 147.769531 8.945312 L 147.742188 8.820312 L 147.71875 8.6875 L 147.703125 8.550781 L 147.660156 8.550781 L 147.578125 8.6875 L 147.492188 8.820312 L 147.402344 8.949219 L 147.308594 9.066406 L 147.210938 9.179688 L 147.105469 9.289062 L 147 9.390625 L 146.886719 9.484375 L 146.769531 9.570312 L 146.648438 9.652344 L 146.523438 9.730469 L 146.390625 9.796875 L 146.257812 9.855469 L 146.113281 9.90625 L 145.96875 9.949219 L 145.816406 9.984375 L 145.660156 10.011719 L 145.496094 10.03125 L 145.328125 10.042969 Z M 147.457031 6.382812 L 146.445312 6.398438 L 146.378906 6.402344 L 146.316406 6.40625 L 146.257812 6.410156 L 146.132812 6.417969 L 146.015625 6.433594 L 145.957031 6.4375 L 145.78125 6.460938 L 145.730469 6.472656 L 145.675781 6.484375 L 145.625 6.496094 L 145.574219 6.511719 L 145.523438 6.53125 L 145.476562 6.546875 L 145.382812 6.59375 L 145.296875 6.640625 L 145.257812 6.667969 L 145.21875 6.699219 L 145.183594 6.730469 L 145.148438 6.765625 L 145.117188 6.800781 L 145.054688 6.878906 L 145.027344 6.921875 L 145 6.96875 L 144.976562 7.015625 L 144.957031 7.066406 L 144.9375 7.121094 L 144.921875 7.179688 L 144.90625 7.242188 L 144.894531 7.308594 L 144.886719 7.375 L 144.878906 7.445312 L 144.875 7.523438 L 144.875 7.601562 L 144.878906 7.707031 L 144.886719 7.804688 L 144.898438 7.902344 L 144.914062 7.988281 L 144.9375 8.074219 L 144.964844 8.152344 L 144.996094 8.222656 L 145.03125 8.292969 L 145.074219 8.351562 L 145.121094 8.410156 L 145.171875 8.457031 L 145.230469 8.503906 L 145.289062 8.542969 L 145.414062 8.605469 L 145.484375 8.628906 L 145.554688 8.644531 L 145.628906 8.660156 L 145.707031 8.667969 L 145.863281 8.667969 L 145.9375 8.664062 L 146.011719 8.65625 L 146.082031 8.644531 L 146.152344 8.628906 L 146.285156 8.589844 L 146.351562 8.566406 L 146.414062 8.539062 L 146.476562 8.507812 L 146.539062 8.472656 L 146.65625 8.402344 L 146.710938 8.363281 L 146.863281 8.234375 L 146.910156 8.1875 L 146.957031 8.136719 L 147 8.085938 L 147.042969 8.03125 L 147.082031 7.976562 L 147.121094 7.917969 L 147.191406 7.800781 L 147.226562 7.738281 L 147.253906 7.675781 L 147.285156 7.609375 L 147.3125 7.542969 L 147.335938 7.472656 L 147.359375 7.40625 L 147.398438 7.265625 L 147.414062 7.195312 L 147.4375 7.054688 L 147.445312 6.984375 L 147.453125 6.84375 L 147.457031 6.769531 Z M 147.457031 6.382812 "/>
<path style=" stroke:none;fill-rule:nonzero;fill:rgb(0%,0%,0%);fill-opacity:1;" d="M 151.378906 9.90625 L 151.378906 7.761719 L 153.410156 7.761719 L 153.410156 9.90625 Z M 151.378906 9.90625 "/>
<path style=" stroke:none;fill-rule:nonzero;fill:rgb(0%,0%,0%);fill-opacity:1;" d="M 161.820312 7.683594 L 161.820312 7.792969 L 161.8125 7.898438 L 161.800781 8.003906 L 161.785156 8.105469 L 161.761719 8.207031 L 161.738281 8.304688 L 161.707031 8.398438 L 161.671875 8.492188 L 161.632812 8.582031 L 161.589844 8.667969 L 161.542969 8.753906 L 161.492188 8.839844 L 161.375 8.996094 L 161.3125 9.074219 L 161.242188 9.148438 L 161.171875 9.21875 L 161.09375 9.285156 L 161.011719 9.351562 L 160.929688 9.414062 L 160.839844 9.472656 L 160.746094 9.53125 L 160.648438 9.585938 L 160.546875 9.636719 L 160.441406 9.683594 L 160.332031 9.730469 L 160.222656 9.773438 L 160.105469 9.8125 L 159.984375 9.851562 L 159.859375 9.886719 L 159.730469 9.917969 L 159.597656 9.945312 L 159.464844 9.96875 L 159.183594 10.007812 L 159.035156 10.023438 L 158.886719 10.03125 L 158.734375 10.042969 L 158.578125 10.046875 L 158.273438 10.046875 L 158.132812 10.042969 L 157.996094 10.039062 L 157.859375 10.03125 L 157.730469 10.019531 L 157.597656 10.007812 L 157.472656 9.996094 L 157.347656 9.980469 L 157.226562 9.960938 L 157.109375 9.941406 L 156.882812 9.894531 L 156.773438 9.867188 L 156.664062 9.835938 L 156.5625 9.804688 L 156.460938 9.765625 L 156.363281 9.730469 L 156.265625 9.6875 L 156.171875 9.644531 L 156.082031 9.597656 L 155.996094 9.546875 L 155.914062 9.492188 L 155.835938 9.4375 L 155.757812 9.378906 L 155.683594 9.316406 L 155.609375 9.25 L 155.542969 9.183594 L 155.476562 9.113281 L 155.351562 8.964844 L 155.292969 8.886719 L 155.238281 8.804688 L 155.1875 8.714844 L 155.140625 8.625 L 155.09375 8.53125 L 155.050781 8.433594 L 154.972656 8.230469 L 154.941406 8.121094 L 154.910156 8.007812 L 156.644531 7.75 L 156.664062 7.808594 L 156.683594 7.871094 L 156.703125 7.925781 L 156.722656 7.984375 L 156.769531 8.085938 L 156.792969 8.132812 L 156.820312 8.179688 L 156.847656 8.222656 L 156.878906 8.261719 L 156.90625 8.300781 L 156.941406 8.335938 L 156.972656 8.371094 L 157.007812 8.40625 L 157.042969 8.4375 L 157.082031 8.464844 L 157.117188 8.492188 L 157.160156 8.519531 L 157.199219 8.542969 L 157.242188 8.5625 L 157.289062 8.585938 L 157.332031 8.601562 L 157.378906 8.621094 L 157.480469 8.652344 L 157.582031 8.675781 L 157.636719 8.6875 L 157.691406 8.695312 L 157.808594 8.710938 L 157.871094 8.71875 L 157.933594 8.722656 L 158 8.726562 L 158.0625 8.730469 L 158.132812 8.734375 L 158.199219 8.738281 L 158.617188 8.738281 L 158.867188 8.722656 L 158.925781 8.71875 L 159.101562 8.695312 L 159.15625 8.6875 L 159.214844 8.675781 L 159.265625 8.664062 L 159.316406 8.648438 L 159.367188 8.636719 L 159.507812 8.589844 L 159.59375 8.550781 L 159.671875 8.503906 L 159.742188 8.457031 L 159.777344 8.425781 L 159.835938 8.367188 L 159.863281 8.335938 L 159.886719 8.304688 L 159.910156 8.269531 L 159.949219 8.191406 L 159.964844 8.148438 L 159.988281 8.0625 L 159.996094 8.015625 L 160 7.96875 L 160.007812 7.867188 L 160.003906 7.808594 L 160 7.753906 L 159.992188 7.703125 L 159.980469 7.652344 L 159.960938 7.605469 L 159.945312 7.558594 L 159.921875 7.515625 L 159.894531 7.476562 L 159.863281 7.4375 L 159.832031 7.402344 L 159.796875 7.371094 L 159.757812 7.335938 L 159.71875 7.304688 L 159.675781 7.273438 L 159.582031 7.21875 L 159.527344 7.191406 L 159.476562 7.167969 L 159.359375 7.121094 L 159.300781 7.101562 L 159.238281 7.078125 L 159.105469 7.039062 L 158.964844 7 L 158.890625 6.980469 L 158.816406 6.964844 L 158.738281 6.949219 L 158.65625 6.933594 L 158.574219 6.914062 L 158.492188 6.898438 L 158.410156 6.878906 L 158.328125 6.863281 L 158.15625 6.824219 L 158.066406 6.804688 L 157.980469 6.785156 L 157.890625 6.765625 L 157.800781 6.742188 L 157.796875 6.742188 L 157.703125 6.722656 L 157.609375 6.699219 L 157.511719 6.675781 L 157.324219 6.628906 L 156.949219 6.519531 L 156.855469 6.488281 L 156.765625 6.460938 L 156.585938 6.390625 L 156.5 6.355469 L 156.417969 6.316406 L 156.253906 6.230469 L 156.175781 6.1875 L 156.101562 6.136719 L 156.027344 6.089844 L 155.957031 6.035156 L 155.886719 5.984375 L 155.820312 5.925781 L 155.695312 5.800781 L 155.640625 5.738281 L 155.53125 5.597656 L 155.4375 5.449219 L 155.394531 5.367188 L 155.355469 5.285156 L 155.320312 5.195312 L 155.292969 5.101562 L 155.269531 5.003906 L 155.246094 4.902344 L 155.230469 4.796875 L 155.21875 4.6875 L 155.214844 4.574219 L 155.210938 4.457031 L 155.21875 4.246094 L 155.230469 4.144531 L 155.246094 4.042969 L 155.265625 3.945312 L 155.289062 3.851562 L 155.316406 3.757812 L 155.347656 3.667969 L 155.382812 3.582031 L 155.421875 3.496094 L 155.464844 3.410156 L 155.515625 3.328125 L 155.566406 3.25 L 155.621094 3.171875 L 155.683594 3.097656 L 155.746094 3.027344 L 155.8125 2.960938 L 155.886719 2.894531 L 155.960938 2.832031 L 156.042969 2.769531 L 156.039062 2.769531 L 156.125 2.710938 L 156.210938 2.65625 L 156.304688 2.601562 L 156.398438 2.550781 L 156.496094 2.503906 L 156.597656 2.460938 L 156.703125 2.417969 L 156.816406 2.382812 L 156.929688 2.34375 L 157.046875 2.3125 L 157.167969 2.28125 L 157.296875 2.253906 L 157.425781 2.230469 L 157.558594 2.210938 L 157.695312 2.191406 L 157.835938 2.175781 L 157.980469 2.167969 L 158.125 2.15625 L 158.277344 2.152344 L 158.433594 2.152344 L 158.429688 2.152344 L 158.554688 2.152344 L 158.675781 2.15625 L 158.796875 2.164062 L 159.03125 2.179688 L 159.257812 2.210938 L 159.367188 2.226562 L 159.476562 2.25 L 159.585938 2.269531 L 159.691406 2.296875 L 159.792969 2.320312 L 159.996094 2.382812 L 160.089844 2.417969 L 160.277344 2.496094 L 160.367188 2.542969 L 160.457031 2.585938 L 160.542969 2.636719 L 160.539062 2.636719 L 160.625 2.6875 L 160.78125 2.796875 L 160.855469 2.855469 L 160.929688 2.917969 L 161.0625 3.050781 L 161.125 3.121094 L 161.1875 3.195312 L 161.246094 3.269531 L 161.242188 3.269531 L 161.300781 3.347656 L 161.351562 3.429688 L 161.402344 3.515625 L 161.488281 3.695312 L 161.527344 3.792969 L 161.5625 3.890625 L 161.59375 3.992188 L 161.621094 4.097656 L 161.644531 4.203125 L 159.894531 4.386719 L 159.882812 4.332031 L 159.859375 4.230469 L 159.84375 4.183594 L 159.824219 4.136719 L 159.808594 4.09375 L 159.789062 4.050781 L 159.742188 3.972656 L 159.71875 3.9375 L 159.664062 3.867188 L 159.636719 3.835938 L 159.574219 3.773438 L 159.511719 3.71875 L 159.476562 3.695312 L 159.4375 3.671875 L 159.402344 3.648438 L 159.363281 3.628906 L 159.328125 3.609375 L 159.285156 3.59375 L 159.246094 3.574219 L 159.203125 3.5625 L 159.160156 3.546875 L 159.113281 3.535156 L 159.070312 3.527344 L 159.023438 3.515625 L 158.871094 3.492188 L 158.820312 3.488281 L 158.769531 3.480469 L 158.605469 3.46875 L 158.488281 3.46875 L 158.433594 3.464844 L 158.429688 3.464844 L 158.292969 3.46875 L 158.164062 3.472656 L 158.042969 3.484375 L 157.925781 3.496094 L 157.816406 3.511719 L 157.714844 3.53125 L 157.621094 3.554688 L 157.53125 3.582031 L 157.449219 3.613281 L 157.378906 3.648438 L 157.375 3.648438 L 157.308594 3.6875 L 157.25 3.730469 L 157.199219 3.777344 L 157.152344 3.828125 L 157.113281 3.886719 L 157.082031 3.949219 L 157.058594 4.015625 L 157.039062 4.089844 L 157.027344 4.164062 L 157.027344 4.246094 L 157.023438 4.246094 L 157.03125 4.347656 L 157.039062 4.394531 L 157.046875 4.4375 L 157.0625 4.480469 L 157.074219 4.519531 L 157.09375 4.558594 L 157.140625 4.628906 L 157.167969 4.660156 L 157.164062 4.660156 L 157.195312 4.691406 L 157.230469 4.722656 L 157.300781 4.777344 L 157.34375 4.804688 L 157.382812 4.828125 L 157.429688 4.855469 L 157.472656 4.878906 L 157.523438 4.898438 L 157.574219 4.921875 L 157.683594 4.960938 L 157.742188 4.980469 L 157.800781 4.996094 L 157.863281 5.015625 L 157.925781 5.03125 L 157.992188 5.050781 L 158.058594 5.066406 L 158.199219 5.097656 L 158.347656 5.128906 L 158.582031 5.175781 L 158.660156 5.195312 L 158.824219 5.234375 L 158.996094 5.273438 L 158.992188 5.273438 L 159.308594 5.34375 L 159.414062 5.371094 L 159.515625 5.398438 L 159.621094 5.421875 L 159.722656 5.453125 L 159.824219 5.480469 L 159.925781 5.511719 L 160.027344 5.539062 L 160.128906 5.570312 L 160.324219 5.640625 L 160.511719 5.71875 L 160.601562 5.761719 L 160.6875 5.804688 L 160.773438 5.851562 L 160.855469 5.902344 L 160.933594 5.957031 L 161.011719 6.007812 L 161.089844 6.066406 L 161.160156 6.125 L 161.230469 6.1875 L 161.296875 6.253906 L 161.359375 6.324219 L 161.417969 6.394531 L 161.472656 6.472656 L 161.574219 6.628906 L 161.621094 6.714844 L 161.664062 6.804688 L 161.699219 6.898438 L 161.730469 7 L 161.757812 7.101562 L 161.78125 7.210938 L 161.796875 7.320312 L 161.8125 7.4375 L 161.816406 7.558594 Z M 161.820312 7.683594 "/>
<path style=" stroke:none;fill-rule:nonzero;fill:rgb(0%,0%,0%);fill-opacity:1;" d="M 146.300781 288 L 145.355469 285.585938 L 141.59375 285.585938 L 140.644531 288 L 139.484375 288 L 142.855469 279.742188 L 144.125 279.742188 L 147.441406 288 Z M 143.960938 281.988281 L 143.945312 281.941406 L 143.886719 281.800781 L 143.871094 281.753906 L 143.851562 281.703125 L 143.835938 281.65625 L 143.796875 281.5625 L 143.78125 281.515625 L 143.765625 281.464844 L 143.75 281.417969 L 143.734375 281.375 L 143.71875 281.328125 L 143.6875 281.242188 L 143.675781 281.199219 L 143.660156 281.160156 L 143.648438 281.121094 L 143.632812 281.078125 L 143.621094 281.039062 L 143.574219 280.898438 L 143.5625 280.867188 L 143.554688 280.835938 L 143.542969 280.804688 L 143.53125 280.777344 L 143.523438 280.75 L 143.5 280.679688 L 143.496094 280.660156 L 143.484375 280.613281 L 143.480469 280.605469 L 143.476562 280.59375 L 143.476562 280.585938 L 143.472656 280.59375 L 143.46875 280.605469 L 143.464844 280.613281 L 143.453125 280.660156 L 143.445312 280.679688 L 143.421875 280.75 L 143.414062 280.78125 L 143.40625 280.808594 L 143.394531 280.839844 L 143.386719 280.871094 L 143.375 280.902344 L 143.339844 281.007812 L 143.324219 281.046875 L 143.300781 281.125 L 143.269531 281.210938 L 143.257812 281.25 L 143.242188 281.296875 L 143.226562 281.339844 L 143.210938 281.386719 L 143.195312 281.429688 L 143.175781 281.476562 L 143.160156 281.523438 L 143.144531 281.574219 L 143.125 281.621094 L 143.09375 281.714844 L 143.078125 281.765625 L 143.058594 281.8125 L 143.042969 281.859375 L 143.023438 281.90625 L 143.007812 281.953125 L 142.988281 282 L 141.933594 284.710938 L 145.023438 284.710938 Z M 143.960938 281.988281 "/>
<path style=" stroke:none;fill-rule:nonzero;fill:rgb(0%,0%,0%);fill-opacity:1;" d="M 152.160156 288 L 150.453125 285.398438 L 148.738281 288 L 147.601562 288 L 149.855469 284.742188 L 147.707031 281.660156 L 148.871094 281.660156 L 150.453125 284.125 L 152.023438 281.660156 L 153.203125 281.660156 L 151.050781 284.730469 L 153.335938 288 Z M 152.160156 288 "/>
<path style=" stroke:none;fill-rule:nonzero;fill:rgb(0%,0%,0%);fill-opacity:1;" d="M 154.269531 280.3125 L 154.269531 279.304688 L 155.324219 279.304688 L 155.324219 280.3125 Z M 154.269531 288 L 154.269531 281.660156 L 155.324219 281.660156 L 155.324219 288 Z M 154.269531 288 "/>
<path style=" stroke:none;fill-rule:nonzero;fill:rgb(0%,0%,0%);fill-opacity:1;" d="M 161.699219 286.25 L 161.691406 286.421875 L 161.683594 286.507812 L 161.671875 286.589844 L 161.65625 286.671875 L 161.636719 286.75 L 161.613281 286.824219 L 161.585938 286.902344 L 161.554688 286.972656 L 161.523438 287.046875 L 161.488281 287.113281 L 161.449219 287.179688 L 161.363281 287.304688 L 161.261719 287.421875 L 161.207031 287.476562 L 161.148438 287.53125 L 161.089844 287.582031 L 161.023438 287.632812 L 160.957031 287.675781 L 160.886719 287.71875 L 160.8125 287.761719 L 160.738281 287.800781 L 160.660156 287.839844 L 160.578125 287.875 L 160.492188 287.90625 L 160.3125 287.96875 L 160.214844 287.992188 L 160.121094 288.015625 L 160.019531 288.039062 L 159.917969 288.058594 L 159.8125 288.074219 L 159.707031 288.085938 L 159.597656 288.097656 L 159.484375 288.105469 L 159.367188 288.113281 L 159.25 288.117188 L 159.015625 288.117188 L 158.804688 288.109375 L 158.601562 288.09375 L 158.503906 288.085938 L 158.40625 288.074219 L 158.3125 288.0625 L 158.21875 288.046875 L 158.128906 288.03125 L 157.957031 287.992188 L 157.875 287.96875 L 157.71875 287.921875 L 157.640625 287.894531 L 157.566406 287.863281 L 157.496094 287.832031 L 157.425781 287.796875 L 157.355469 287.757812 L 157.292969 287.722656 L 157.226562 287.679688 L 157.167969 287.636719 L 157.105469 287.589844 L 157.050781 287.542969 L 156.941406 287.441406 L 156.890625 287.386719 L 156.839844 287.328125 L 156.792969 287.265625 L 156.75 287.203125 L 156.671875 287.070312 L 156.601562 286.921875 L 156.570312 286.847656 L 156.539062 286.765625 L 156.511719 286.683594 L 156.464844 286.511719 L 157.398438 286.328125 L 157.429688 286.429688 L 157.464844 286.523438 L 157.503906 286.613281 L 157.550781 286.695312 L 157.605469 286.773438 L 157.664062 286.84375 L 157.726562 286.910156 L 157.796875 286.972656 L 157.875 287.03125 L 157.953125 287.078125 L 158.042969 287.125 L 158.136719 287.164062 L 158.238281 287.199219 L 158.34375 287.230469 L 158.457031 287.257812 L 158.578125 287.277344 L 158.707031 287.292969 L 158.839844 287.304688 L 158.980469 287.3125 L 159.261719 287.3125 L 159.324219 287.308594 L 159.390625 287.308594 L 159.453125 287.304688 L 159.511719 287.296875 L 159.574219 287.292969 L 159.691406 287.277344 L 159.746094 287.265625 L 159.804688 287.257812 L 159.914062 287.234375 L 160.015625 287.203125 L 160.109375 287.171875 L 160.15625 287.152344 L 160.199219 287.132812 L 160.238281 287.109375 L 160.28125 287.085938 L 160.316406 287.058594 L 160.355469 287.03125 L 160.390625 287.003906 L 160.421875 286.976562 L 160.453125 286.945312 L 160.507812 286.875 L 160.554688 286.804688 L 160.578125 286.765625 L 160.617188 286.679688 L 160.632812 286.636719 L 160.65625 286.542969 L 160.664062 286.492188 L 160.667969 286.4375 L 160.671875 286.386719 L 160.671875 286.273438 L 160.667969 286.21875 L 160.652344 286.117188 L 160.640625 286.070312 L 160.625 286.023438 L 160.585938 285.9375 L 160.539062 285.859375 L 160.511719 285.824219 L 160.449219 285.753906 L 160.378906 285.691406 L 160.339844 285.660156 L 160.296875 285.628906 L 160.210938 285.574219 L 160.164062 285.550781 L 160.011719 285.480469 L 159.953125 285.457031 L 159.898438 285.4375 L 159.835938 285.414062 L 159.777344 285.394531 L 159.710938 285.375 L 159.644531 285.359375 L 159.578125 285.339844 L 159.367188 285.28125 L 159.144531 285.222656 L 159.066406 285.199219 L 158.988281 285.179688 L 158.910156 285.15625 L 158.828125 285.132812 L 158.75 285.113281 L 158.601562 285.074219 L 158.523438 285.050781 L 158.449219 285.03125 L 158.371094 285.007812 L 158.148438 284.9375 L 158.070312 284.914062 L 157.996094 284.886719 L 157.925781 284.859375 L 157.851562 284.832031 L 157.78125 284.800781 L 157.648438 284.738281 L 157.515625 284.667969 L 157.390625 284.589844 L 157.332031 284.546875 L 157.277344 284.503906 L 157.222656 284.457031 L 157.121094 284.363281 L 157.074219 284.308594 L 157.027344 284.257812 L 156.984375 284.203125 L 156.90625 284.085938 L 156.871094 284.023438 L 156.839844 283.960938 L 156.808594 283.894531 L 156.785156 283.824219 L 156.765625 283.75 L 156.734375 283.59375 L 156.726562 283.511719 L 156.71875 283.425781 L 156.71875 283.335938 L 156.722656 283.167969 L 156.742188 283.003906 L 156.773438 282.851562 L 156.816406 282.707031 L 156.871094 282.574219 L 156.941406 282.445312 L 157.019531 282.324219 L 157.113281 282.214844 L 157.214844 282.113281 L 157.332031 282.015625 L 157.464844 281.929688 L 157.605469 281.851562 L 157.757812 281.785156 L 157.921875 281.726562 L 158.09375 281.675781 L 158.28125 281.632812 L 158.480469 281.601562 L 158.6875 281.578125 L 158.90625 281.566406 L 159.136719 281.5625 L 159.34375 281.5625 L 159.539062 281.574219 L 159.730469 281.59375 L 159.90625 281.621094 L 160.078125 281.652344 L 160.242188 281.695312 L 160.394531 281.742188 L 160.539062 281.796875 L 160.675781 281.859375 L 160.800781 281.929688 L 160.921875 282.007812 L 161.03125 282.09375 L 161.132812 282.191406 L 161.226562 282.296875 L 161.308594 282.410156 L 161.382812 282.53125 L 161.449219 282.664062 L 161.503906 282.804688 L 161.550781 282.953125 L 161.585938 283.113281 L 160.636719 283.230469 L 160.613281 283.136719 L 160.597656 283.089844 L 160.582031 283.046875 L 160.5625 283.003906 L 160.542969 282.964844 L 160.519531 282.925781 L 160.472656 282.855469 L 160.417969 282.785156 L 160.386719 282.753906 L 160.355469 282.726562 L 160.324219 282.695312 L 160.253906 282.640625 L 160.183594 282.59375 L 160.144531 282.570312 L 160.066406 282.53125 L 159.980469 282.492188 L 159.894531 282.460938 L 159.847656 282.449219 L 159.800781 282.433594 L 159.753906 282.421875 L 159.652344 282.40625 L 159.605469 282.394531 L 159.503906 282.378906 L 159.402344 282.371094 L 159.351562 282.363281 L 159.296875 282.363281 L 159.246094 282.359375 L 159 282.359375 L 158.867188 282.367188 L 158.742188 282.375 L 158.625 282.390625 L 158.515625 282.410156 L 158.414062 282.433594 L 158.320312 282.464844 L 158.234375 282.496094 L 158.15625 282.53125 L 158.082031 282.574219 L 158.019531 282.621094 L 157.960938 282.667969 L 157.910156 282.722656 L 157.867188 282.785156 L 157.828125 282.847656 L 157.796875 282.914062 L 157.773438 282.988281 L 157.757812 283.0625 L 157.746094 283.144531 L 157.742188 283.230469 L 157.75 283.332031 L 157.753906 283.378906 L 157.761719 283.421875 L 157.773438 283.464844 L 157.789062 283.507812 L 157.804688 283.546875 L 157.84375 283.625 L 157.867188 283.65625 L 157.894531 283.691406 L 157.921875 283.722656 L 157.953125 283.753906 L 157.984375 283.78125 L 158.019531 283.8125 L 158.054688 283.839844 L 158.09375 283.863281 L 158.132812 283.890625 L 158.21875 283.9375 L 158.3125 283.984375 L 158.414062 284.023438 L 158.46875 284.046875 L 158.523438 284.066406 L 158.582031 284.082031 L 158.699219 284.121094 L 158.761719 284.140625 L 158.828125 284.15625 L 158.890625 284.171875 L 158.957031 284.1875 L 159.027344 284.207031 L 159.097656 284.222656 L 159.167969 284.242188 L 159.238281 284.257812 L 159.386719 284.296875 L 159.460938 284.3125 L 159.511719 284.328125 L 159.5625 284.339844 L 159.613281 284.355469 L 159.664062 284.367188 L 159.714844 284.382812 L 159.765625 284.394531 L 159.820312 284.410156 L 159.921875 284.441406 L 159.976562 284.453125 L 160.027344 284.46875 L 160.082031 284.484375 L 160.183594 284.515625 L 160.234375 284.535156 L 160.285156 284.550781 L 160.4375 284.609375 L 160.484375 284.632812 L 160.585938 284.671875 L 160.632812 284.695312 L 160.683594 284.71875 L 160.777344 284.765625 L 160.820312 284.789062 L 160.867188 284.816406 L 160.953125 284.871094 L 161 284.898438 L 161.042969 284.925781 L 161.082031 284.957031 L 161.125 284.988281 L 161.164062 285.019531 L 161.199219 285.054688 L 161.238281 285.089844 L 161.308594 285.160156 L 161.339844 285.199219 L 161.375 285.238281 L 161.402344 285.277344 L 161.433594 285.320312 L 161.460938 285.363281 L 161.488281 285.410156 L 161.511719 285.453125 L 161.535156 285.5 L 161.558594 285.550781 L 161.578125 285.597656 L 161.597656 285.648438 L 161.636719 285.757812 L 161.648438 285.8125 L 161.664062 285.871094 L 161.675781 285.929688 L 161.683594 285.988281 L 161.691406 286.050781 L 161.695312 286.117188 L 161.699219 286.179688 Z M 161.699219 286.25 "/>
<path style=" stroke:none;fill-rule:nonzero;fill:rgb(0%,0%,0%);fill-opacity:1;" d="M 8.257812 160.394531 L 0 160.394531 L 0 159.273438 L 8.257812 159.273438 Z M 8.257812 160.394531 "/>
<path style=" stroke:none;fill-rule:nonzero;fill:rgb(0%,0%,0%);fill-opacity:1;" d="M 8.257812 153.332031 L 4.238281 153.332031 L 4.144531 153.335938 L 4.058594 153.335938 L 3.972656 153.339844 L 3.890625 153.34375 L 3.734375 153.359375 L 3.664062 153.367188 L 3.59375 153.378906 L 3.527344 153.390625 L 3.464844 153.402344 L 3.402344 153.417969 L 3.34375 153.433594 L 3.289062 153.449219 L 3.234375 153.46875 L 3.183594 153.488281 L 3.132812 153.511719 L 3.089844 153.535156 L 3.042969 153.5625 L 3.003906 153.589844 L 2.925781 153.652344 L 2.890625 153.683594 L 2.859375 153.722656 L 2.828125 153.757812 L 2.800781 153.796875 L 2.773438 153.839844 L 2.75 153.882812 L 2.710938 153.976562 L 2.695312 154.023438 L 2.679688 154.074219 L 2.664062 154.128906 L 2.652344 154.183594 L 2.644531 154.242188 L 2.632812 154.300781 L 2.625 154.363281 L 2.617188 154.496094 L 2.613281 154.566406 L 2.613281 154.714844 L 2.617188 154.789062 L 2.625 154.859375 L 2.636719 154.929688 L 2.648438 154.996094 L 2.660156 155.066406 L 2.679688 155.128906 L 2.699219 155.195312 L 2.722656 155.257812 L 2.75 155.320312 L 2.773438 155.378906 L 2.804688 155.4375 L 2.835938 155.492188 L 2.871094 155.546875 L 2.90625 155.597656 L 2.945312 155.648438 L 2.988281 155.699219 L 3.03125 155.746094 L 3.078125 155.792969 L 3.128906 155.835938 L 3.230469 155.914062 L 3.289062 155.953125 L 3.34375 155.988281 L 3.40625 156.023438 L 3.46875 156.054688 L 3.535156 156.085938 L 3.601562 156.113281 L 3.671875 156.140625 L 3.746094 156.164062 L 3.816406 156.1875 L 3.894531 156.207031 L 4.050781 156.238281 L 4.136719 156.25 L 4.21875 156.261719 L 4.398438 156.277344 L 4.488281 156.28125 L 8.257812 156.28125 L 8.257812 157.335938 L 3.023438 157.335938 L 2.980469 157.339844 L 2.722656 157.339844 L 2.679688 157.34375 L 2.515625 157.34375 L 2.476562 157.347656 L 2.359375 157.347656 L 2.324219 157.351562 L 2.253906 157.351562 L 2.21875 157.355469 L 2.15625 157.355469 L 2.125 157.359375 L 2.046875 157.359375 L 2.023438 157.363281 L 1.980469 157.363281 L 1.964844 157.367188 L 1.9375 157.367188 L 1.925781 157.371094 L 1.917969 157.371094 L 1.917969 156.375 L 1.921875 156.375 L 1.933594 156.371094 L 1.957031 156.371094 L 1.96875 156.367188 L 2.003906 156.367188 L 2.027344 156.363281 L 2.101562 156.363281 L 2.128906 156.359375 L 2.183594 156.359375 L 2.214844 156.355469 L 2.273438 156.355469 L 2.308594 156.351562 L 2.375 156.351562 L 2.40625 156.347656 L 2.4375 156.347656 L 2.472656 156.34375 L 2.507812 156.34375 L 2.539062 156.339844 L 2.574219 156.339844 L 2.609375 156.335938 L 2.679688 156.335938 L 2.714844 156.332031 L 2.808594 156.332031 L 2.839844 156.328125 L 3 156.328125 L 3 156.308594 L 2.890625 156.246094 L 2.789062 156.183594 L 2.738281 156.148438 L 2.6875 156.117188 L 2.546875 156.011719 L 2.503906 155.976562 L 2.457031 155.9375 L 2.414062 155.902344 L 2.375 155.863281 L 2.335938 155.820312 L 2.296875 155.78125 L 2.261719 155.738281 L 2.226562 155.691406 L 2.191406 155.648438 L 2.15625 155.601562 L 2.128906 155.554688 L 2.097656 155.503906 L 2.066406 155.457031 L 2.039062 155.402344 L 2.011719 155.351562 L 1.964844 155.242188 L 1.941406 155.183594 L 1.902344 155.066406 L 1.871094 154.941406 L 1.855469 154.875 L 1.84375 154.808594 L 1.820312 154.667969 L 1.8125 154.59375 L 1.808594 154.519531 L 1.800781 154.441406 L 1.800781 154.179688 L 1.804688 154.078125 L 1.808594 153.980469 L 1.820312 153.882812 L 1.84375 153.703125 L 1.882812 153.53125 L 1.902344 153.453125 L 1.929688 153.375 L 1.953125 153.300781 L 1.984375 153.226562 L 2.019531 153.15625 L 2.054688 153.089844 L 2.132812 152.964844 L 2.175781 152.90625 L 2.222656 152.851562 L 2.273438 152.796875 L 2.328125 152.746094 L 2.382812 152.699219 L 2.441406 152.65625 L 2.566406 152.570312 L 2.707031 152.5 L 2.78125 152.46875 L 2.859375 152.441406 L 2.941406 152.414062 L 3.023438 152.390625 L 3.109375 152.367188 L 3.199219 152.347656 L 3.386719 152.316406 L 3.488281 152.300781 L 3.589844 152.292969 L 3.695312 152.285156 L 3.804688 152.277344 L 3.914062 152.273438 L 8.257812 152.273438 Z M 8.257812 153.332031 "/>
<path style=" stroke:none;fill-rule:nonzero;fill:rgb(0%,0%,0%);fill-opacity:1;" d="M 5.308594 149.875 L 5.40625 149.875 L 5.601562 149.867188 L 5.789062 149.851562 L 5.96875 149.828125 L 6.058594 149.8125 L 6.144531 149.796875 L 6.230469 149.777344 L 6.3125 149.753906 L 6.390625 149.730469 L 6.46875 149.703125 L 6.542969 149.675781 L 6.617188 149.644531 L 6.6875 149.613281 L 6.757812 149.578125 L 6.824219 149.539062 L 6.949219 149.460938 L 7.007812 149.414062 L 7.117188 149.320312 L 7.167969 149.269531 L 7.214844 149.214844 L 7.261719 149.15625 L 7.304688 149.097656 L 7.34375 149.039062 L 7.382812 148.976562 L 7.417969 148.910156 L 7.449219 148.839844 L 7.476562 148.769531 L 7.523438 148.621094 L 7.542969 148.542969 L 7.554688 148.460938 L 7.566406 148.375 L 7.574219 148.289062 L 7.582031 148.199219 L 7.582031 148.105469 L 7.578125 147.972656 L 7.570312 147.84375 L 7.558594 147.71875 L 7.539062 147.601562 L 7.511719 147.488281 L 7.484375 147.382812 L 7.445312 147.28125 L 7.40625 147.1875 L 7.359375 147.097656 L 7.308594 147.011719 L 7.25 146.929688 L 7.191406 146.855469 L 7.128906 146.785156 L 7.0625 146.722656 L 6.996094 146.664062 L 6.921875 146.609375 L 6.847656 146.5625 L 6.773438 146.519531 L 6.691406 146.480469 L 6.609375 146.449219 L 6.875 145.523438 L 6.925781 145.542969 L 6.980469 145.566406 L 7.03125 145.589844 L 7.085938 145.617188 L 7.136719 145.644531 L 7.191406 145.671875 L 7.246094 145.703125 L 7.296875 145.734375 L 7.40625 145.804688 L 7.457031 145.839844 L 7.511719 145.878906 L 7.558594 145.921875 L 7.609375 145.964844 L 7.660156 146.011719 L 7.707031 146.058594 L 7.753906 146.109375 L 7.796875 146.164062 L 7.84375 146.21875 L 7.886719 146.277344 L 7.929688 146.339844 L 8.007812 146.472656 L 8.042969 146.542969 L 8.082031 146.617188 L 8.113281 146.691406 L 8.148438 146.773438 L 8.179688 146.855469 L 8.210938 146.941406 L 8.238281 147.027344 L 8.265625 147.121094 L 8.285156 147.214844 L 8.308594 147.3125 L 8.324219 147.414062 L 8.339844 147.519531 L 8.351562 147.628906 L 8.359375 147.742188 L 8.367188 147.859375 L 8.371094 147.980469 L 8.375 148.105469 L 8.363281 148.382812 L 8.339844 148.644531 L 8.296875 148.890625 L 8.238281 149.125 L 8.164062 149.347656 L 8.070312 149.554688 L 7.960938 149.75 L 7.835938 149.929688 L 7.695312 150.097656 L 7.535156 150.25 L 7.359375 150.390625 L 7.167969 150.515625 L 6.960938 150.625 L 6.734375 150.71875 L 6.492188 150.800781 L 6.238281 150.867188 L 5.964844 150.917969 L 5.671875 150.953125 L 5.367188 150.976562 L 5.046875 150.984375 L 4.871094 150.980469 L 4.699219 150.976562 L 4.535156 150.964844 L 4.375 150.949219 L 4.222656 150.929688 L 4.074219 150.902344 L 3.933594 150.875 L 3.796875 150.839844 L 3.664062 150.804688 L 3.539062 150.761719 L 3.417969 150.714844 L 3.300781 150.664062 L 3.1875 150.613281 L 3.078125 150.558594 L 2.976562 150.496094 L 2.878906 150.433594 L 2.785156 150.367188 L 2.695312 150.300781 L 2.609375 150.226562 L 2.53125 150.152344 L 2.457031 150.074219 L 2.386719 149.992188 L 2.320312 149.90625 L 2.257812 149.820312 L 2.199219 149.734375 L 2.144531 149.640625 L 2.097656 149.546875 L 2.050781 149.449219 L 2.011719 149.351562 L 1.976562 149.25 L 1.941406 149.144531 L 1.910156 149.039062 L 1.886719 148.933594 L 1.863281 148.824219 L 1.84375 148.714844 L 1.828125 148.605469 L 1.804688 148.378906 L 1.800781 148.265625 L 1.800781 147.992188 L 1.808594 147.839844 L 1.820312 147.695312 L 1.839844 147.550781 L 1.863281 147.417969 L 1.890625 147.285156 L 1.925781 147.160156 L 1.964844 147.042969 L 2.007812 146.925781 L 2.058594 146.816406 L 2.109375 146.710938 L 2.167969 146.609375 L 2.292969 146.421875 L 2.363281 146.332031 L 2.4375 146.25 L 2.515625 146.167969 L 2.597656 146.09375 L 2.683594 146.023438 L 2.773438 145.957031 L 2.863281 145.894531 L 2.957031 145.832031 L 3.058594 145.777344 L 3.160156 145.726562 L 3.265625 145.675781 L 3.371094 145.632812 L 3.597656 145.554688 L 3.714844 145.523438 L 3.839844 145.492188 L 3.960938 145.46875 L 4.089844 145.441406 L 4.214844 145.421875 L 4.347656 145.402344 L 4.476562 145.386719 L 4.613281 145.375 L 4.746094 145.367188 L 4.886719 145.359375 L 5.167969 145.351562 L 5.308594 145.351562 Z M 4.5 146.441406 L 4.304688 146.464844 L 4.121094 146.492188 L 3.949219 146.527344 L 3.785156 146.566406 L 3.632812 146.613281 L 3.492188 146.667969 L 3.363281 146.730469 L 3.246094 146.796875 L 3.136719 146.871094 L 3.042969 146.953125 L 2.953125 147.039062 L 2.875 147.136719 L 2.804688 147.238281 L 2.746094 147.347656 L 2.695312 147.464844 L 2.652344 147.589844 L 2.621094 147.722656 L 2.597656 147.863281 L 2.582031 148.011719 L 2.578125 148.164062 L 2.578125 148.21875 L 2.585938 148.328125 L 2.609375 148.492188 L 2.621094 148.550781 L 2.632812 148.605469 L 2.648438 148.664062 L 2.667969 148.722656 L 2.683594 148.777344 L 2.703125 148.835938 L 2.726562 148.890625 L 2.78125 149 L 2.8125 149.050781 L 2.847656 149.105469 L 2.882812 149.15625 L 2.921875 149.207031 L 2.964844 149.253906 L 3.011719 149.304688 L 3.058594 149.351562 L 3.109375 149.394531 L 3.164062 149.441406 L 3.222656 149.480469 L 3.28125 149.523438 L 3.414062 149.601562 L 3.484375 149.636719 L 3.558594 149.671875 L 3.632812 149.703125 L 3.710938 149.734375 L 3.796875 149.761719 L 3.886719 149.785156 L 3.976562 149.804688 L 4.074219 149.824219 L 4.277344 149.847656 L 4.386719 149.859375 L 4.5 149.863281 Z M 4.5 146.441406 "/>
<path style=" stroke:none;fill-rule:nonzero;fill:rgb(0%,0%,0%);fill-opacity:1;" d="M 8.257812 143.988281 L 3.152344 143.988281 L 3.109375 143.992188 L 2.863281 143.992188 L 2.824219 143.996094 L 2.660156 143.996094 L 2.621094 144 L 2.507812 144 L 2.46875 144.003906 L 2.398438 144.003906 L 2.359375 144.007812 L 2.289062 144.007812 L 2.253906 144.011719 L 2.152344 144.011719 L 2.121094 144.015625 L 2.058594 144.015625 L 2.03125 144.019531 L 1.972656 144.019531 L 1.941406 144.023438 L 1.917969 144.023438 L 1.917969 143.027344 L 1.945312 143.027344 L 1.972656 143.023438 L 2.03125 143.023438 L 2.0625 143.019531 L 2.125 143.019531 L 2.15625 143.015625 L 2.226562 143.015625 L 2.261719 143.011719 L 2.296875 143.011719 L 2.328125 143.007812 L 2.363281 143.007812 L 2.398438 143.003906 L 2.433594 143.003906 L 2.46875 143 L 2.542969 143 L 2.578125 142.996094 L 2.613281 142.996094 L 2.648438 142.992188 L 2.6875 142.992188 L 2.722656 142.988281 L 2.828125 142.988281 L 2.859375 142.984375 L 3.023438 142.984375 L 3.054688 142.980469 L 3.210938 142.980469 L 3.210938 142.957031 L 3 142.886719 L 2.9375 142.867188 L 2.871094 142.84375 L 2.8125 142.820312 L 2.75 142.792969 L 2.695312 142.769531 L 2.636719 142.746094 L 2.585938 142.722656 L 2.53125 142.695312 L 2.429688 142.640625 L 2.382812 142.613281 L 2.296875 142.550781 L 2.253906 142.523438 L 2.214844 142.488281 L 2.179688 142.457031 L 2.109375 142.386719 L 2.046875 142.316406 L 1.992188 142.238281 L 1.921875 142.109375 L 1.902344 142.066406 L 1.871094 141.972656 L 1.855469 141.921875 L 1.84375 141.871094 L 1.832031 141.816406 L 1.820312 141.757812 L 1.8125 141.703125 L 1.808594 141.640625 L 1.800781 141.582031 L 1.800781 141.347656 L 1.808594 141.300781 L 1.808594 141.277344 L 1.8125 141.25 L 1.816406 141.226562 L 1.824219 141.203125 L 1.824219 141.179688 L 1.84375 141.082031 L 1.855469 141.035156 L 1.859375 141.023438 L 2.824219 141.023438 L 2.820312 141.042969 L 2.8125 141.066406 L 2.796875 141.160156 L 2.785156 141.242188 L 2.785156 141.269531 L 2.78125 141.296875 L 2.777344 141.328125 L 2.773438 141.355469 L 2.773438 141.386719 L 2.769531 141.417969 L 2.769531 141.449219 L 2.765625 141.484375 L 2.765625 141.65625 L 2.773438 141.726562 L 2.78125 141.792969 L 2.792969 141.859375 L 2.824219 141.984375 L 2.847656 142.042969 L 2.871094 142.097656 L 2.898438 142.152344 L 2.929688 142.207031 L 2.964844 142.257812 L 3 142.304688 L 3.039062 142.351562 L 3.125 142.4375 L 3.171875 142.476562 L 3.273438 142.554688 L 3.328125 142.589844 L 3.445312 142.652344 L 3.507812 142.683594 L 3.570312 142.710938 L 3.636719 142.734375 L 3.703125 142.761719 L 3.773438 142.78125 L 3.847656 142.804688 L 3.921875 142.824219 L 4.078125 142.855469 L 4.160156 142.871094 L 4.324219 142.894531 L 4.410156 142.90625 L 4.582031 142.921875 L 4.671875 142.925781 L 4.765625 142.929688 L 4.855469 142.933594 L 8.257812 142.933594 Z M 8.257812 143.988281 "/>
<path style=" stroke:none;fill-rule:nonzero;fill:rgb(0%,0%,0%);fill-opacity:1;" d="M 8.210938 137.578125 L 8.222656 137.625 L 8.234375 137.675781 L 8.246094 137.722656 L 8.257812 137.773438 L 8.265625 137.820312 L 8.277344 137.871094 L 8.285156 137.917969 L 8.324219 138.171875 L 8.328125 138.226562 L 8.335938 138.28125 L 8.339844 138.335938 L 8.347656 138.453125 L 8.347656 138.578125 L 8.351562 138.644531 L 8.335938 138.882812 L 8.292969 139.097656 L 8.21875 139.289062 L 8.121094 139.453125 L 7.992188 139.59375 L 7.832031 139.707031 L 7.644531 139.796875 L 7.429688 139.859375 L 7.1875 139.898438 L 6.914062 139.910156 L 2.683594 139.910156 L 2.683594 140.640625 L 1.917969 140.640625 L 1.917969 139.867188 L 0.5 139.558594 L 0.5 138.855469 L 1.917969 138.855469 L 1.917969 137.683594 L 2.683594 137.683594 L 2.683594 138.855469 L 6.6875 138.855469 L 6.859375 138.847656 L 7.007812 138.832031 L 7.074219 138.816406 L 7.136719 138.800781 L 7.246094 138.761719 L 7.332031 138.707031 L 7.363281 138.675781 L 7.394531 138.640625 L 7.421875 138.597656 L 7.445312 138.550781 L 7.484375 138.449219 L 7.496094 138.390625 L 7.511719 138.257812 L 7.511719 138.125 L 7.507812 138.097656 L 7.507812 138.039062 L 7.503906 138.007812 L 7.5 137.980469 L 7.496094 137.949219 L 7.488281 137.894531 L 7.484375 137.863281 L 7.476562 137.835938 L 7.46875 137.773438 L 7.460938 137.742188 L 7.457031 137.710938 L 7.449219 137.675781 L 7.441406 137.644531 L 7.4375 137.609375 L 7.429688 137.578125 Z M 8.210938 137.578125 "/>
<path style=" stroke:none;fill-rule:nonzero;fill:rgb(0%,0%,0%);fill-opacity:1;" d="M 0.570312 136.6875 L -0.4375 136.6875 L -0.4375 135.632812 L 0.570312 135.632812 Z M 8.257812 136.6875 L 1.917969 136.6875 L 1.917969 135.632812 L 8.257812 135.632812 Z M 8.257812 136.6875 "/>
<path style=" stroke:none;fill-rule:nonzero;fill:rgb(0%,0%,0%);fill-opacity:1;" d="M 8.375 132.398438 L 8.367188 132.585938 L 8.351562 132.761719 L 8.328125 132.929688 L 8.292969 133.085938 L 8.246094 133.234375 L 8.191406 133.375 L 8.125 133.503906 L 8.050781 133.621094 L 7.964844 133.734375 L 7.871094 133.832031 L 7.765625 133.925781 L 7.652344 134.007812 L 7.53125 134.078125 L 7.40625 134.140625 L 7.273438 134.195312 L 7.128906 134.238281 L 6.980469 134.269531 L 6.824219 134.292969 L 6.660156 134.308594 L 6.488281 134.3125 L 6.363281 134.3125 L 6.246094 134.304688 L 6.128906 134.292969 L 6.019531 134.277344 L 5.816406 134.230469 L 5.71875 134.199219 L 5.628906 134.164062 L 5.542969 134.125 L 5.460938 134.078125 L 5.382812 134.03125 L 5.304688 133.976562 L 5.234375 133.921875 L 5.164062 133.863281 L 5.101562 133.804688 L 5.039062 133.742188 L 4.980469 133.675781 L 4.925781 133.605469 L 4.875 133.53125 L 4.828125 133.457031 L 4.742188 133.300781 L 4.703125 133.21875 L 4.667969 133.132812 L 4.636719 133.046875 L 4.605469 132.957031 L 4.578125 132.867188 L 4.550781 132.773438 L 4.511719 132.578125 L 4.480469 132.382812 L 4.464844 132.28125 L 4.453125 132.183594 L 4.441406 132.082031 L 4.433594 131.984375 L 4.417969 131.78125 L 4.414062 131.679688 L 4.414062 131.578125 L 4.390625 130.152344 L 4.042969 130.152344 L 3.964844 130.15625 L 3.890625 130.15625 L 3.816406 130.160156 L 3.746094 130.167969 L 3.613281 130.183594 L 3.488281 130.207031 L 3.429688 130.21875 L 3.375 130.234375 L 3.320312 130.253906 L 3.21875 130.292969 L 3.125 130.339844 L 3.082031 130.367188 L 3.042969 130.394531 L 3 130.421875 L 2.964844 130.453125 L 2.929688 130.488281 L 2.867188 130.558594 L 2.835938 130.597656 L 2.808594 130.636719 L 2.785156 130.679688 L 2.757812 130.722656 L 2.699219 130.863281 L 2.667969 130.964844 L 2.652344 131.019531 L 2.640625 131.074219 L 2.632812 131.132812 L 2.621094 131.191406 L 2.613281 131.25 L 2.609375 131.3125 L 2.601562 131.445312 L 2.601562 131.632812 L 2.605469 131.691406 L 2.609375 131.746094 L 2.613281 131.804688 L 2.617188 131.859375 L 2.625 131.910156 L 2.632812 131.964844 L 2.640625 132.015625 L 2.648438 132.0625 L 2.65625 132.113281 L 2.679688 132.207031 L 2.695312 132.25 L 2.707031 132.292969 L 2.726562 132.335938 L 2.742188 132.375 L 2.761719 132.417969 L 2.785156 132.453125 L 2.808594 132.492188 L 2.828125 132.527344 L 2.855469 132.5625 L 2.910156 132.625 L 2.941406 132.65625 L 3.003906 132.710938 L 3.042969 132.738281 L 3.078125 132.761719 L 3.117188 132.785156 L 3.15625 132.804688 L 3.242188 132.84375 L 3.289062 132.863281 L 3.335938 132.875 L 3.386719 132.890625 L 3.441406 132.902344 L 3.492188 132.914062 L 3.609375 132.929688 L 3.511719 134.03125 L 3.433594 134.019531 L 3.363281 134.003906 L 3.289062 133.988281 L 3.21875 133.96875 L 3.152344 133.949219 L 3.082031 133.925781 L 2.949219 133.871094 L 2.761719 133.777344 L 2.703125 133.738281 L 2.640625 133.699219 L 2.53125 133.613281 L 2.476562 133.566406 L 2.425781 133.515625 L 2.324219 133.40625 L 2.28125 133.347656 L 2.234375 133.285156 L 2.191406 133.21875 L 2.152344 133.152344 L 2.113281 133.078125 L 2.042969 132.929688 L 1.980469 132.765625 L 1.953125 132.679688 L 1.929688 132.589844 L 1.902344 132.496094 L 1.882812 132.402344 L 1.863281 132.300781 L 1.84375 132.195312 L 1.820312 131.976562 L 1.808594 131.859375 L 1.800781 131.617188 L 1.800781 131.488281 L 1.804688 131.257812 L 1.820312 131.035156 L 1.847656 130.824219 L 1.886719 130.628906 L 1.9375 130.441406 L 1.996094 130.269531 L 2.070312 130.105469 L 2.152344 129.957031 L 2.246094 129.816406 L 2.351562 129.691406 L 2.464844 129.574219 L 2.585938 129.472656 L 2.722656 129.382812 L 2.863281 129.304688 L 3.019531 129.238281 L 3.179688 129.183594 L 3.355469 129.140625 L 3.535156 129.113281 L 3.730469 129.09375 L 3.933594 129.085938 L 6.753906 129.085938 L 6.839844 129.082031 L 6.921875 129.078125 L 7 129.066406 L 7.074219 129.054688 L 7.140625 129.042969 L 7.207031 129.027344 L 7.265625 129.007812 L 7.320312 128.988281 L 7.371094 128.964844 L 7.414062 128.9375 L 7.457031 128.90625 L 7.492188 128.871094 L 7.519531 128.832031 L 7.546875 128.785156 L 7.566406 128.738281 L 7.585938 128.683594 L 7.597656 128.625 L 7.601562 128.5625 L 7.605469 128.496094 L 7.605469 128.425781 L 7.601562 128.40625 L 7.601562 128.371094 L 7.597656 128.355469 L 7.597656 128.335938 L 7.59375 128.320312 L 7.589844 128.300781 L 7.589844 128.285156 L 7.585938 128.265625 L 7.582031 128.25 L 7.582031 128.234375 L 7.578125 128.214844 L 7.566406 128.167969 L 7.566406 128.148438 L 8.222656 128.148438 L 8.230469 128.191406 L 8.261719 128.347656 L 8.269531 128.390625 L 8.273438 128.429688 L 8.28125 128.46875 L 8.285156 128.507812 L 8.292969 128.546875 L 8.300781 128.625 L 8.304688 128.667969 L 8.304688 128.707031 L 8.308594 128.75 L 8.3125 128.789062 L 8.3125 128.921875 L 8.316406 128.964844 L 8.3125 129.023438 L 8.3125 129.082031 L 8.308594 129.136719 L 8.300781 129.191406 L 8.296875 129.242188 L 8.285156 129.292969 L 8.277344 129.34375 L 8.253906 129.4375 L 8.238281 129.480469 L 8.222656 129.519531 L 8.203125 129.5625 L 8.183594 129.597656 L 8.160156 129.636719 L 8.113281 129.707031 L 8.058594 129.769531 L 8.027344 129.796875 L 8 129.824219 L 7.964844 129.851562 L 7.929688 129.875 L 7.894531 129.902344 L 7.855469 129.921875 L 7.816406 129.945312 L 7.777344 129.964844 L 7.734375 129.984375 L 7.691406 130 L 7.644531 130.015625 L 7.601562 130.03125 L 7.550781 130.042969 L 7.5 130.058594 L 7.449219 130.066406 L 7.394531 130.078125 L 7.339844 130.085938 L 7.285156 130.097656 L 7.226562 130.101562 L 7.167969 130.109375 L 7.042969 130.117188 L 7.042969 130.152344 L 7.101562 130.1875 L 7.164062 130.222656 L 7.21875 130.257812 L 7.277344 130.296875 L 7.332031 130.332031 L 7.441406 130.410156 L 7.59375 130.527344 L 7.640625 130.570312 L 7.6875 130.609375 L 7.734375 130.65625 L 7.78125 130.699219 L 7.824219 130.746094 L 7.863281 130.792969 L 7.902344 130.84375 L 7.941406 130.890625 L 7.980469 130.945312 L 8.015625 130.996094 L 8.050781 131.050781 L 8.082031 131.109375 L 8.109375 131.167969 L 8.140625 131.226562 L 8.167969 131.285156 L 8.191406 131.347656 L 8.214844 131.414062 L 8.238281 131.476562 L 8.261719 131.542969 L 8.28125 131.613281 L 8.328125 131.824219 L 8.351562 131.980469 L 8.359375 132.058594 L 8.363281 132.140625 L 8.371094 132.222656 L 8.371094 132.308594 Z M 7.582031 132.15625 L 7.582031 132.058594 L 7.574219 131.960938 L 7.566406 131.867188 L 7.554688 131.773438 L 7.535156 131.6875 L 7.515625 131.597656 L 7.492188 131.515625 L 7.464844 131.433594 L 7.402344 131.277344 L 7.363281 131.203125 L 7.277344 131.0625 L 7.234375 130.996094 L 7.1875 130.929688 L 7.140625 130.871094 L 7.089844 130.8125 L 7.035156 130.753906 L 6.925781 130.652344 L 6.867188 130.601562 L 6.808594 130.554688 L 6.75 130.511719 L 6.5625 130.394531 L 6.496094 130.363281 L 6.433594 130.332031 L 6.367188 130.300781 L 6.300781 130.277344 L 6.230469 130.253906 L 6.097656 130.214844 L 5.964844 130.183594 L 5.902344 130.171875 L 5.835938 130.164062 L 5.648438 130.152344 L 5.128906 130.152344 L 5.152344 131.308594 L 5.152344 131.386719 L 5.15625 131.460938 L 5.15625 131.535156 L 5.164062 131.613281 L 5.167969 131.6875 L 5.175781 131.757812 L 5.179688 131.832031 L 5.191406 131.902344 L 5.199219 131.976562 L 5.210938 132.046875 L 5.21875 132.113281 L 5.230469 132.179688 L 5.246094 132.246094 L 5.261719 132.308594 L 5.28125 132.371094 L 5.300781 132.429688 L 5.347656 132.546875 L 5.402344 132.65625 L 5.464844 132.757812 L 5.5 132.804688 L 5.539062 132.851562 L 5.578125 132.894531 L 5.664062 132.972656 L 5.710938 133.011719 L 5.761719 133.042969 L 5.8125 133.078125 L 5.867188 133.105469 L 5.925781 133.132812 L 5.984375 133.15625 L 6.050781 133.175781 L 6.117188 133.191406 L 6.1875 133.207031 L 6.261719 133.214844 L 6.339844 133.222656 L 6.503906 133.230469 L 6.605469 133.226562 L 6.699219 133.21875 L 6.792969 133.207031 L 6.878906 133.1875 L 6.960938 133.160156 L 7.039062 133.128906 L 7.109375 133.09375 L 7.179688 133.054688 L 7.242188 133.007812 L 7.300781 132.953125 L 7.355469 132.894531 L 7.402344 132.832031 L 7.445312 132.765625 L 7.480469 132.691406 L 7.511719 132.613281 L 7.535156 132.53125 L 7.558594 132.445312 L 7.570312 132.355469 L 7.578125 132.257812 Z M 7.582031 132.15625 "/>
<g clip-path="url(#clip1)" clip-rule="nonzero">
<path style=" stroke:none;fill-rule:nonzero;fill:rgb(100%,100%,100%);fill-opacity:1;" d="M 30.601562 279.742188 L 270.992188 279.742188 L 270.992188 9.90625 L 30.601562 9.90625 Z M 30.601562 279.742188 "/>
</g>
<path style="fill:none;stroke-width:0.75;stroke-linecap:round;stroke-linejoin:round;stroke:rgb(0%,0%,0%);stroke-opacity:1;stroke-miterlimit:10;" d="M 30.601562 279.742188 L 24.933594 279.742188 "/>
<path style="fill:none;stroke-width:0.75;stroke-linecap:round;stroke-linejoin:round;stroke:rgb(0%,0%,0%);stroke-opacity:1;stroke-miterlimit:10;" d="M 30.601562 202.136719 L 24.933594 202.136719 "/>
<path style="fill:none;stroke-width:0.75;stroke-linecap:round;stroke-linejoin:round;stroke:rgb(0%,0%,0%);stroke-opacity:1;stroke-miterlimit:10;" d="M 30.601562 124.527344 L 24.933594 124.527344 "/>
<path style="fill:none;stroke-width:0.75;stroke-linecap:round;stroke-linejoin:round;stroke:rgb(0%,0%,0%);stroke-opacity:1;stroke-miterlimit:10;" d="M 30.601562 46.917969 L 24.933594 46.917969 "/>
<path style=" stroke:none;fill-rule:nonzero;fill:rgb(0%,0%,0%);fill-opacity:1;" d="M 18.890625 279.742188 L 18.886719 279.929688 L 18.882812 280.109375 L 18.871094 280.285156 L 18.859375 280.453125 L 18.84375 280.617188 L 18.824219 280.777344 L 18.800781 280.925781 L 18.773438 281.074219 L 18.742188 281.210938 L 18.707031 281.34375 L 18.667969 281.472656 L 18.628906 281.59375 L 18.585938 281.710938 L 18.542969 281.824219 L 18.496094 281.929688 L 18.445312 282.035156 L 18.390625 282.132812 L 18.335938 282.222656 L 18.277344 282.3125 L 18.214844 282.394531 L 18.152344 282.472656 L 18.085938 282.546875 L 18.019531 282.613281 L 17.949219 282.675781 L 17.875 282.738281 L 17.800781 282.792969 L 17.726562 282.84375 L 17.648438 282.886719 L 17.566406 282.929688 L 17.484375 282.96875 L 17.398438 283 L 17.226562 283.054688 L 17.136719 283.078125 L 17.046875 283.097656 L 16.957031 283.113281 L 16.863281 283.125 L 16.773438 283.132812 L 16.679688 283.136719 L 16.582031 283.140625 L 16.488281 283.136719 L 16.390625 283.132812 L 16.300781 283.125 L 16.207031 283.113281 L 16.117188 283.097656 L 16.027344 283.078125 L 15.9375 283.054688 L 15.765625 283 L 15.683594 282.96875 L 15.601562 282.929688 L 15.519531 282.886719 L 15.441406 282.84375 L 15.367188 282.792969 L 15.292969 282.738281 L 15.152344 282.613281 L 15.085938 282.546875 L 15.019531 282.472656 L 14.957031 282.394531 L 14.898438 282.3125 L 14.839844 282.226562 L 14.785156 282.132812 L 14.734375 282.035156 L 14.683594 281.933594 L 14.636719 281.828125 L 14.59375 281.714844 L 14.550781 281.597656 L 14.511719 281.476562 L 14.472656 281.351562 L 14.410156 281.078125 L 14.363281 280.78125 L 14.34375 280.621094 L 14.328125 280.457031 L 14.316406 280.289062 L 14.308594 280.113281 L 14.300781 279.929688 L 14.300781 279.546875 L 14.308594 279.355469 L 14.316406 279.175781 L 14.328125 279 L 14.34375 278.828125 L 14.363281 278.667969 L 14.386719 278.515625 L 14.410156 278.367188 L 14.441406 278.226562 L 14.472656 278.09375 L 14.511719 277.964844 L 14.550781 277.839844 L 14.59375 277.722656 L 14.636719 277.609375 L 14.683594 277.503906 L 14.734375 277.402344 L 14.789062 277.304688 L 14.84375 277.210938 L 14.960938 277.046875 L 15.023438 276.972656 L 15.089844 276.898438 L 15.15625 276.835938 L 15.226562 276.773438 L 15.296875 276.714844 L 15.371094 276.664062 L 15.449219 276.617188 L 15.527344 276.574219 L 15.609375 276.535156 L 15.691406 276.503906 L 15.777344 276.472656 L 15.863281 276.445312 L 15.953125 276.421875 L 16.132812 276.382812 L 16.226562 276.367188 L 16.414062 276.351562 L 16.511719 276.34375 L 16.707031 276.34375 L 16.796875 276.351562 L 16.890625 276.359375 L 16.980469 276.367188 L 17.070312 276.382812 L 17.242188 276.421875 L 17.328125 276.445312 L 17.414062 276.472656 L 17.578125 276.535156 L 17.660156 276.574219 L 17.738281 276.617188 L 17.8125 276.664062 L 17.886719 276.714844 L 17.957031 276.773438 L 18.027344 276.835938 L 18.09375 276.898438 L 18.160156 276.972656 L 18.222656 277.046875 L 18.285156 277.128906 L 18.34375 277.210938 L 18.398438 277.304688 L 18.449219 277.402344 L 18.5 277.503906 L 18.546875 277.609375 L 18.59375 277.722656 L 18.632812 277.839844 L 18.675781 277.964844 L 18.710938 278.09375 L 18.746094 278.226562 L 18.773438 278.367188 L 18.800781 278.515625 L 18.824219 278.667969 L 18.84375 278.828125 L 18.859375 279 L 18.875 279.175781 L 18.882812 279.355469 L 18.886719 279.546875 Z M 18.03125 279.742188 L 18.03125 279.585938 L 18.027344 279.4375 L 18.023438 279.292969 L 18.007812 279.019531 L 17.984375 278.769531 L 17.972656 278.652344 L 17.957031 278.539062 L 17.9375 278.433594 L 17.917969 278.332031 L 17.898438 278.234375 L 17.875 278.136719 L 17.847656 278.046875 L 17.792969 277.882812 L 17.761719 277.804688 L 17.730469 277.730469 L 17.695312 277.664062 L 17.625 277.539062 L 17.585938 277.480469 L 17.5 277.378906 L 17.457031 277.332031 L 17.410156 277.289062 L 17.363281 277.25 L 17.316406 277.21875 L 17.265625 277.1875 L 17.15625 277.132812 L 17.046875 277.09375 L 16.988281 277.074219 L 16.929688 277.0625 L 16.867188 277.046875 L 16.808594 277.039062 L 16.742188 277.03125 L 16.679688 277.027344 L 16.539062 277.027344 L 16.472656 277.03125 L 16.339844 277.046875 L 16.277344 277.0625 L 16.214844 277.074219 L 16.152344 277.09375 L 16.09375 277.113281 L 16.039062 277.132812 L 15.929688 277.1875 L 15.878906 277.21875 L 15.828125 277.253906 L 15.777344 277.292969 L 15.730469 277.335938 L 15.6875 277.382812 L 15.601562 277.484375 L 15.5625 277.542969 L 15.523438 277.605469 L 15.488281 277.667969 L 15.453125 277.738281 L 15.421875 277.808594 L 15.390625 277.886719 L 15.363281 277.96875 L 15.335938 278.054688 L 15.3125 278.144531 L 15.289062 278.238281 L 15.265625 278.335938 L 15.246094 278.4375 L 15.214844 278.65625 L 15.199219 278.773438 L 15.175781 279.023438 L 15.167969 279.15625 L 15.160156 279.296875 L 15.15625 279.4375 L 15.152344 279.585938 L 15.152344 279.890625 L 15.15625 280.035156 L 15.160156 280.175781 L 15.167969 280.3125 L 15.175781 280.441406 L 15.1875 280.566406 L 15.199219 280.6875 L 15.214844 280.804688 L 15.246094 281.023438 L 15.265625 281.125 L 15.289062 281.222656 L 15.3125 281.316406 L 15.339844 281.40625 L 15.367188 281.492188 L 15.394531 281.574219 L 15.425781 281.652344 L 15.457031 281.726562 L 15.527344 281.859375 L 15.566406 281.921875 L 15.605469 281.980469 L 15.648438 282.035156 L 15.691406 282.085938 L 15.734375 282.132812 L 15.78125 282.175781 L 15.828125 282.214844 L 15.878906 282.253906 L 15.929688 282.285156 L 15.984375 282.316406 L 16.09375 282.363281 L 16.148438 282.382812 L 16.207031 282.402344 L 16.269531 282.417969 L 16.332031 282.429688 L 16.457031 282.445312 L 16.523438 282.449219 L 16.59375 282.453125 L 16.660156 282.449219 L 16.722656 282.445312 L 16.847656 282.429688 L 16.910156 282.417969 L 16.96875 282.402344 L 17.027344 282.382812 L 17.082031 282.363281 L 17.191406 282.316406 L 17.246094 282.285156 L 17.296875 282.253906 L 17.34375 282.214844 L 17.394531 282.175781 L 17.484375 282.085938 L 17.523438 282.035156 L 17.566406 281.980469 L 17.605469 281.921875 L 17.640625 281.859375 L 17.679688 281.792969 L 17.714844 281.726562 L 17.746094 281.652344 L 17.777344 281.574219 L 17.808594 281.492188 L 17.835938 281.40625 L 17.859375 281.316406 L 17.886719 281.222656 L 17.90625 281.125 L 17.929688 281.023438 L 17.949219 280.914062 L 17.964844 280.804688 L 17.980469 280.6875 L 17.996094 280.566406 L 18.003906 280.441406 L 18.015625 280.3125 L 18.023438 280.175781 L 18.027344 280.035156 L 18.03125 279.890625 Z M 18.03125 279.742188 "/>
<path style=" stroke:none;fill-rule:nonzero;fill:rgb(0%,0%,0%);fill-opacity:1;" d="M 14.40625 205.4375 L 14.40625 204.84375 L 14.457031 204.734375 L 14.507812 204.628906 L 14.5625 204.523438 L 14.671875 204.328125 L 14.730469 204.230469 L 14.855469 204.050781 L 14.921875 203.960938 L 14.988281 203.875 L 15.128906 203.710938 L 15.199219 203.632812 L 15.273438 203.554688 L 15.34375 203.476562 L 15.492188 203.328125 L 15.714844 203.117188 L 15.792969 203.050781 L 15.941406 202.917969 L 16.019531 202.851562 L 16.316406 202.601562 L 16.613281 202.367188 L 16.683594 202.308594 L 16.753906 202.253906 L 16.820312 202.195312 L 16.890625 202.136719 L 16.953125 202.078125 L 17.019531 202.019531 L 17.078125 201.960938 L 17.140625 201.902344 L 17.257812 201.785156 L 17.308594 201.726562 L 17.363281 201.667969 L 17.457031 201.542969 L 17.503906 201.484375 L 17.546875 201.421875 L 17.585938 201.359375 L 17.625 201.292969 L 17.660156 201.230469 L 17.691406 201.164062 L 17.71875 201.09375 L 17.742188 201.027344 L 17.765625 200.953125 L 17.78125 200.882812 L 17.792969 200.804688 L 17.804688 200.730469 L 17.808594 200.652344 L 17.8125 200.570312 L 17.808594 200.515625 L 17.808594 200.460938 L 17.804688 200.410156 L 17.789062 200.308594 L 17.78125 200.261719 L 17.769531 200.210938 L 17.757812 200.167969 L 17.742188 200.121094 L 17.726562 200.078125 L 17.710938 200.039062 L 17.691406 199.996094 L 17.667969 199.957031 L 17.648438 199.917969 L 17.625 199.882812 L 17.570312 199.8125 L 17.515625 199.75 L 17.484375 199.71875 L 17.449219 199.691406 L 17.417969 199.664062 L 17.382812 199.636719 L 17.34375 199.613281 L 17.308594 199.59375 L 17.269531 199.570312 L 17.226562 199.550781 L 17.1875 199.535156 L 17.144531 199.519531 L 17.097656 199.503906 L 17.054688 199.488281 L 16.960938 199.464844 L 16.914062 199.457031 L 16.867188 199.445312 L 16.816406 199.441406 L 16.765625 199.433594 L 16.714844 199.429688 L 16.507812 199.429688 L 16.457031 199.433594 L 16.410156 199.441406 L 16.359375 199.445312 L 16.265625 199.460938 L 16.171875 199.484375 L 16.128906 199.5 L 16.085938 199.511719 L 16.042969 199.53125 L 16 199.546875 L 15.960938 199.566406 L 15.917969 199.585938 L 15.878906 199.609375 L 15.84375 199.632812 L 15.804688 199.65625 L 15.699219 199.738281 L 15.605469 199.832031 L 15.578125 199.867188 L 15.546875 199.902344 L 15.523438 199.941406 L 15.496094 199.980469 L 15.472656 200.019531 L 15.449219 200.0625 L 15.429688 200.101562 L 15.410156 200.148438 L 15.390625 200.191406 L 15.359375 200.285156 L 15.347656 200.335938 L 15.335938 200.382812 L 15.324219 200.4375 L 15.316406 200.488281 L 15.308594 200.542969 L 14.445312 200.464844 L 14.453125 200.394531 L 14.46875 200.324219 L 14.480469 200.253906 L 14.496094 200.1875 L 14.515625 200.117188 L 14.535156 200.050781 L 14.558594 199.984375 L 14.585938 199.921875 L 14.613281 199.855469 L 14.640625 199.792969 L 14.675781 199.730469 L 14.707031 199.671875 L 14.785156 199.554688 L 14.871094 199.445312 L 14.964844 199.34375 L 15.015625 199.292969 L 15.125 199.199219 L 15.183594 199.152344 L 15.242188 199.113281 L 15.304688 199.070312 L 15.367188 199.03125 L 15.433594 198.996094 L 15.503906 198.960938 L 15.644531 198.898438 L 15.71875 198.871094 L 15.796875 198.84375 L 15.878906 198.820312 L 15.960938 198.800781 L 16.132812 198.769531 L 16.222656 198.757812 L 16.316406 198.746094 L 16.410156 198.738281 L 16.507812 198.734375 L 16.703125 198.734375 L 16.800781 198.738281 L 16.890625 198.746094 L 16.984375 198.753906 L 17.070312 198.765625 L 17.160156 198.777344 L 17.324219 198.808594 L 17.40625 198.828125 L 17.484375 198.851562 L 17.558594 198.875 L 17.632812 198.902344 L 17.703125 198.933594 L 17.835938 198.996094 L 17.898438 199.03125 L 17.960938 199.070312 L 18.019531 199.113281 L 18.074219 199.152344 L 18.183594 199.246094 L 18.324219 199.398438 L 18.367188 199.457031 L 18.40625 199.511719 L 18.476562 199.636719 L 18.507812 199.699219 L 18.539062 199.765625 L 18.5625 199.835938 L 18.589844 199.90625 L 18.609375 199.976562 L 18.628906 200.050781 L 18.644531 200.128906 L 18.65625 200.207031 L 18.671875 200.371094 L 18.679688 200.542969 L 18.667969 200.742188 L 18.660156 200.804688 L 18.648438 200.867188 L 18.601562 201.054688 L 18.578125 201.117188 L 18.554688 201.175781 L 18.53125 201.238281 L 18.507812 201.296875 L 18.476562 201.355469 L 18.449219 201.414062 L 18.417969 201.46875 L 18.386719 201.527344 L 18.351562 201.582031 L 18.316406 201.640625 L 18.199219 201.804688 L 18.15625 201.855469 L 18.070312 201.964844 L 17.976562 202.066406 L 17.929688 202.121094 L 17.878906 202.171875 L 17.832031 202.222656 L 17.777344 202.273438 L 17.726562 202.324219 L 17.617188 202.425781 L 17.566406 202.476562 L 17.511719 202.523438 L 17.453125 202.574219 L 17.398438 202.625 L 17.34375 202.671875 L 17.285156 202.722656 L 17.230469 202.769531 L 17.171875 202.820312 L 17.117188 202.867188 L 16.941406 203.007812 L 16.886719 203.058594 L 16.710938 203.199219 L 16.652344 203.25 L 16.59375 203.296875 L 16.539062 203.34375 L 16.480469 203.390625 L 16.261719 203.578125 L 16.210938 203.625 L 16.15625 203.675781 L 16.003906 203.816406 L 15.957031 203.867188 L 15.910156 203.914062 L 15.863281 203.964844 L 15.820312 204.011719 L 15.777344 204.0625 L 15.734375 204.109375 L 15.648438 204.210938 L 15.609375 204.257812 L 15.503906 204.410156 L 15.410156 204.5625 L 15.382812 204.613281 L 15.359375 204.667969 L 15.335938 204.71875 L 18.78125 204.71875 L 18.78125 205.4375 Z M 14.40625 205.4375 "/>
<path style=" stroke:none;fill-rule:nonzero;fill:rgb(0%,0%,0%);fill-opacity:1;" d="M 18.054688 126.332031 L 18.054688 127.828125 L 17.257812 127.828125 L 17.257812 126.332031 L 14.144531 126.332031 L 14.144531 125.675781 L 17.167969 121.222656 L 18.054688 121.222656 L 18.054688 125.667969 L 18.984375 125.667969 L 18.984375 126.332031 Z M 17.257812 122.175781 L 17.253906 122.179688 L 17.253906 122.1875 L 17.242188 122.210938 L 17.238281 122.222656 L 17.230469 122.230469 L 17.226562 122.242188 L 17.21875 122.257812 L 17.203125 122.28125 L 17.1875 122.3125 L 17.179688 122.324219 L 17.164062 122.355469 L 17.152344 122.371094 L 17.136719 122.402344 L 17.125 122.417969 L 17.117188 122.4375 L 17.109375 122.453125 L 17.097656 122.472656 L 17.089844 122.488281 L 17.078125 122.503906 L 17.070312 122.523438 L 17.058594 122.539062 L 17.046875 122.558594 L 17.039062 122.574219 L 17.027344 122.59375 L 17.011719 122.625 L 17 122.640625 L 16.984375 122.671875 L 16.976562 122.683594 L 16.96875 122.699219 L 16.945312 122.734375 L 15.25 125.226562 L 15.242188 125.242188 L 15.234375 125.253906 L 15.230469 125.261719 L 15.222656 125.269531 L 15.207031 125.292969 L 15.199219 125.300781 L 15.191406 125.3125 L 15.179688 125.324219 L 15.171875 125.339844 L 15.148438 125.375 L 15.136719 125.386719 L 15.128906 125.402344 L 15.121094 125.414062 L 15.109375 125.425781 L 15.101562 125.441406 L 15.09375 125.453125 L 15.082031 125.464844 L 15.074219 125.476562 L 15.0625 125.488281 L 15.046875 125.511719 L 15.035156 125.527344 L 15.027344 125.539062 L 15.015625 125.550781 L 15 125.574219 L 14.988281 125.585938 L 14.972656 125.609375 L 14.964844 125.617188 L 14.957031 125.628906 L 14.941406 125.644531 L 14.9375 125.652344 L 14.921875 125.667969 L 17.257812 125.667969 Z M 17.257812 122.175781 "/>
<path style=" stroke:none;fill-rule:nonzero;fill:rgb(0%,0%,0%);fill-opacity:1;" d="M 18.84375 48.058594 L 18.835938 48.253906 L 18.828125 48.351562 L 18.820312 48.445312 L 18.808594 48.535156 L 18.792969 48.628906 L 18.773438 48.714844 L 18.753906 48.804688 L 18.726562 48.890625 L 18.703125 48.972656 L 18.671875 49.054688 L 18.609375 49.210938 L 18.53125 49.359375 L 18.488281 49.429688 L 18.445312 49.496094 L 18.398438 49.5625 L 18.347656 49.625 L 18.292969 49.6875 L 18.238281 49.742188 L 18.183594 49.800781 L 18.058594 49.902344 L 17.925781 49.996094 L 17.855469 50.039062 L 17.78125 50.078125 L 17.707031 50.113281 L 17.628906 50.148438 L 17.464844 50.210938 L 17.378906 50.234375 L 17.199219 50.273438 L 17.105469 50.289062 L 17.011719 50.300781 L 16.914062 50.308594 L 16.8125 50.3125 L 16.59375 50.3125 L 16.484375 50.304688 L 16.375 50.292969 L 16.273438 50.277344 L 16.167969 50.257812 L 16.070312 50.234375 L 15.972656 50.207031 L 15.878906 50.171875 L 15.789062 50.136719 L 15.703125 50.09375 L 15.617188 50.046875 L 15.535156 50 L 15.457031 49.945312 L 15.378906 49.886719 L 15.238281 49.761719 L 15.167969 49.691406 L 15.042969 49.542969 L 14.984375 49.460938 L 14.929688 49.375 L 14.875 49.285156 L 14.824219 49.195312 L 14.777344 49.097656 L 14.734375 49 L 14.691406 48.894531 L 14.652344 48.789062 L 14.582031 48.5625 L 14.554688 48.445312 L 14.527344 48.320312 L 14.503906 48.195312 L 14.480469 48.066406 L 14.464844 47.933594 L 14.433594 47.660156 L 14.417969 47.371094 L 14.414062 47.222656 L 14.414062 46.894531 L 14.417969 46.726562 L 14.425781 46.5625 L 14.4375 46.398438 L 14.453125 46.242188 L 14.46875 46.089844 L 14.492188 45.941406 L 14.515625 45.796875 L 14.570312 45.523438 L 14.605469 45.394531 L 14.644531 45.265625 L 14.683594 45.144531 L 14.726562 45.027344 L 14.769531 44.914062 L 14.820312 44.804688 L 14.871094 44.699219 L 14.925781 44.597656 L 14.980469 44.503906 L 15.039062 44.414062 L 15.101562 44.324219 L 15.167969 44.242188 L 15.234375 44.164062 L 15.304688 44.089844 L 15.453125 43.957031 L 15.53125 43.898438 L 15.613281 43.839844 L 15.695312 43.789062 L 15.78125 43.742188 L 15.871094 43.699219 L 15.960938 43.660156 L 16.054688 43.628906 L 16.152344 43.597656 L 16.25 43.574219 L 16.351562 43.554688 L 16.453125 43.539062 L 16.558594 43.527344 L 16.664062 43.519531 L 16.773438 43.515625 L 16.84375 43.519531 L 16.910156 43.519531 L 16.972656 43.523438 L 17.039062 43.527344 L 17.226562 43.550781 L 17.289062 43.5625 L 17.40625 43.585938 L 17.464844 43.601562 L 17.523438 43.621094 L 17.582031 43.636719 L 17.636719 43.65625 L 17.6875 43.679688 L 17.742188 43.703125 L 17.894531 43.785156 L 17.941406 43.816406 L 17.992188 43.847656 L 18.039062 43.882812 L 18.082031 43.917969 L 18.128906 43.957031 L 18.171875 43.996094 L 18.214844 44.039062 L 18.253906 44.085938 L 18.292969 44.128906 L 18.332031 44.179688 L 18.367188 44.230469 L 18.40625 44.28125 L 18.4375 44.335938 L 18.472656 44.394531 L 18.503906 44.453125 L 18.53125 44.515625 L 18.5625 44.582031 L 18.589844 44.648438 L 18.636719 44.789062 L 18.660156 44.863281 L 17.851562 45.007812 L 17.824219 44.925781 L 17.792969 44.847656 L 17.761719 44.773438 L 17.722656 44.703125 L 17.683594 44.640625 L 17.636719 44.582031 L 17.589844 44.527344 L 17.542969 44.476562 L 17.488281 44.433594 L 17.429688 44.394531 L 17.375 44.355469 L 17.3125 44.324219 L 17.1875 44.269531 L 17.121094 44.25 L 17.054688 44.234375 L 16.984375 44.21875 L 16.914062 44.210938 L 16.839844 44.203125 L 16.695312 44.203125 L 16.628906 44.207031 L 16.5625 44.214844 L 16.5 44.226562 L 16.433594 44.242188 L 16.375 44.261719 L 16.3125 44.28125 L 16.195312 44.335938 L 16.136719 44.367188 L 16.082031 44.398438 L 16.027344 44.4375 L 15.925781 44.523438 L 15.878906 44.570312 L 15.832031 44.621094 L 15.785156 44.675781 L 15.699219 44.792969 L 15.621094 44.925781 L 15.585938 44.992188 L 15.550781 45.066406 L 15.515625 45.144531 L 15.484375 45.222656 L 15.457031 45.308594 L 15.425781 45.394531 L 15.402344 45.484375 L 15.355469 45.671875 L 15.335938 45.773438 L 15.316406 45.878906 L 15.300781 45.984375 L 15.289062 46.09375 L 15.277344 46.207031 L 15.261719 46.441406 L 15.253906 46.566406 L 15.253906 46.691406 L 15.25 46.820312 L 15.300781 46.738281 L 15.351562 46.660156 L 15.40625 46.585938 L 15.464844 46.515625 L 15.527344 46.445312 L 15.59375 46.382812 L 15.664062 46.324219 L 15.738281 46.273438 L 15.816406 46.222656 L 15.898438 46.175781 L 15.984375 46.132812 L 16.070312 46.09375 L 16.160156 46.058594 L 16.25 46.03125 L 16.347656 46.007812 L 16.441406 45.984375 L 16.542969 45.96875 L 16.644531 45.960938 L 16.75 45.953125 L 16.855469 45.949219 L 16.945312 45.953125 L 17.03125 45.957031 L 17.203125 45.972656 L 17.285156 45.988281 L 17.363281 46.003906 L 17.445312 46.019531 L 17.519531 46.042969 L 17.597656 46.066406 L 17.671875 46.09375 L 17.742188 46.125 L 17.8125 46.160156 L 17.878906 46.195312 L 17.945312 46.234375 L 18.007812 46.273438 L 18.070312 46.316406 L 18.1875 46.410156 L 18.292969 46.515625 L 18.394531 46.632812 L 18.441406 46.691406 L 18.484375 46.753906 L 18.527344 46.820312 L 18.566406 46.886719 L 18.601562 46.957031 L 18.636719 47.03125 L 18.667969 47.105469 L 18.695312 47.183594 L 18.726562 47.261719 L 18.75 47.34375 L 18.769531 47.425781 L 18.789062 47.511719 L 18.820312 47.683594 L 18.828125 47.777344 L 18.835938 47.867188 L 18.839844 47.964844 Z M 17.984375 48.097656 L 17.984375 48.027344 L 17.980469 47.960938 L 17.976562 47.898438 L 17.972656 47.832031 L 17.964844 47.769531 L 17.953125 47.710938 L 17.941406 47.648438 L 17.929688 47.589844 L 17.917969 47.535156 L 17.898438 47.476562 L 17.882812 47.421875 L 17.84375 47.320312 L 17.820312 47.269531 L 17.792969 47.222656 L 17.769531 47.175781 L 17.742188 47.132812 L 17.679688 47.046875 L 17.648438 47.007812 L 17.613281 46.972656 L 17.578125 46.933594 L 17.539062 46.898438 L 17.5 46.867188 L 17.457031 46.835938 L 17.371094 46.78125 L 17.324219 46.753906 L 17.277344 46.730469 L 17.230469 46.710938 L 17.179688 46.6875 L 17.128906 46.671875 L 17.019531 46.640625 L 16.902344 46.617188 L 16.84375 46.613281 L 16.78125 46.605469 L 16.71875 46.601562 L 16.605469 46.601562 L 16.5625 46.605469 L 16.46875 46.613281 L 16.328125 46.636719 L 16.1875 46.671875 L 16.144531 46.6875 L 16.050781 46.71875 L 16.007812 46.738281 L 15.964844 46.761719 L 15.921875 46.78125 L 15.882812 46.808594 L 15.839844 46.835938 L 15.761719 46.890625 L 15.726562 46.921875 L 15.65625 46.992188 L 15.625 47.027344 L 15.589844 47.066406 L 15.5625 47.109375 L 15.53125 47.152344 L 15.503906 47.195312 L 15.476562 47.242188 L 15.453125 47.289062 L 15.429688 47.339844 L 15.410156 47.394531 L 15.394531 47.449219 L 15.378906 47.507812 L 15.367188 47.566406 L 15.355469 47.628906 L 15.347656 47.691406 L 15.339844 47.757812 L 15.335938 47.824219 L 15.335938 47.96875 L 15.34375 48.109375 L 15.359375 48.25 L 15.394531 48.449219 L 15.410156 48.515625 L 15.46875 48.703125 L 15.492188 48.761719 L 15.519531 48.816406 L 15.542969 48.875 L 15.570312 48.929688 L 15.601562 48.980469 L 15.628906 49.03125 L 15.664062 49.082031 L 15.695312 49.128906 L 15.734375 49.175781 L 15.769531 49.21875 L 15.808594 49.261719 L 15.894531 49.339844 L 15.9375 49.375 L 15.980469 49.40625 L 16.027344 49.441406 L 16.074219 49.46875 L 16.125 49.5 L 16.226562 49.546875 L 16.277344 49.566406 L 16.332031 49.585938 L 16.386719 49.601562 L 16.445312 49.613281 L 16.5 49.621094 L 16.558594 49.628906 L 16.621094 49.632812 L 16.742188 49.632812 L 16.859375 49.625 L 16.96875 49.609375 L 17.023438 49.597656 L 17.074219 49.582031 L 17.125 49.570312 L 17.226562 49.53125 L 17.320312 49.484375 L 17.449219 49.402344 L 17.492188 49.371094 L 17.53125 49.335938 L 17.601562 49.265625 L 17.636719 49.226562 L 17.671875 49.183594 L 17.703125 49.144531 L 17.730469 49.097656 L 17.761719 49.050781 L 17.785156 49.003906 L 17.8125 48.953125 L 17.835938 48.902344 L 17.855469 48.851562 L 17.875 48.796875 L 17.914062 48.679688 L 17.925781 48.621094 L 17.941406 48.5625 L 17.953125 48.5 L 17.960938 48.4375 L 17.976562 48.304688 L 17.980469 48.238281 L 17.984375 48.167969 Z M 17.984375 48.097656 "/>
<path style="fill:none;stroke-width:0.75;stroke-linecap:round;stroke-linejoin:round;stroke:rgb(0%,0%,0%);stroke-opacity:1;stroke-miterlimit:10;" d="M 270.992188 279.742188 L 276.660156 279.742188 "/>
<path style="fill:none;stroke-width:0.75;stroke-linecap:round;stroke-linejoin:round;stroke:rgb(0%,0%,0%);stroke-opacity:1;stroke-miterlimit:10;" d="M 270.992188 202.136719 L 276.660156 202.136719 "/>
<path style="fill:none;stroke-width:0.75;stroke-linecap:round;stroke-linejoin:round;stroke:rgb(0%,0%,0%);stroke-opacity:1;stroke-miterlimit:10;" d="M 270.992188 124.527344 L 276.660156 124.527344 "/>
<path style="fill:none;stroke-width:0.75;stroke-linecap:round;stroke-linejoin:round;stroke:rgb(0%,0%,0%);stroke-opacity:1;stroke-miterlimit:10;" d="M 270.992188 46.917969 L 276.660156 46.917969 "/>
<g clip-path="url(#clip2)" clip-rule="nonzero">
<path style="fill:none;stroke-width:0.75;stroke-linecap:round;stroke-linejoin:round;stroke:rgb(0%,0%,0%);stroke-opacity:1;stroke-miterlimit:10;" d="M 30.601562 279.742188 L 270.992188 279.742188 "/>
<path style="fill:none;stroke-width:0.75;stroke-linecap:round;stroke-linejoin:round;stroke:rgb(0%,0%,0%);stroke-opacity:1;stroke-miterlimit:10;" d="M 30.601562 279.742188 L 270.992188 279.742188 "/>
</g>
<g clip-path="url(#clip3)" clip-rule="nonzero">
<path style=" stroke:none;fill-rule:nonzero;fill:rgb(74.509804%,74.509804%,74.509804%);fill-opacity:1;" d="M 41.621094 279.742188 L 59.648438 279.742188 L 59.648438 34.4375 L 41.621094 34.4375 Z M 41.621094 279.742188 "/>
</g>
<g clip-path="url(#clip4)" clip-rule="nonzero">
<path style="fill:none;stroke-width:0.75;stroke-linecap:round;stroke-linejoin:round;stroke:rgb(0%,0%,0%);stroke-opacity:1;stroke-miterlimit:10;" d="M 41.621094 279.742188 L 59.648438 279.742188 L 59.648438 34.4375 L 41.621094 34.4375 Z M 41.621094 279.742188 "/>
</g>
<g clip-path="url(#clip5)" clip-rule="nonzero">
<path style=" stroke:none;fill-rule:nonzero;fill:rgb(74.509804%,74.509804%,74.509804%);fill-opacity:1;" d="M 61.652344 279.742188 L 79.679688 279.742188 L 79.679688 193.148438 L 61.652344 193.148438 Z M 61.652344 279.742188 "/>
</g>
<g clip-path="url(#clip6)" clip-rule="nonzero">
<path style="fill:none;stroke-width:0.75;stroke-linecap:round;stroke-linejoin:round;stroke:rgb(0%,0%,0%);stroke-opacity:1;stroke-miterlimit:10;" d="M 61.652344 279.742188 L 79.679688 279.742188 L 79.679688 193.148438 L 61.652344 193.148438 Z M 61.652344 279.742188 "/>
</g>
<g clip-path="url(#clip7)" clip-rule="nonzero">
<path style=" stroke:none;fill-rule:nonzero;fill:rgb(100%,100%,100%);fill-opacity:1;" d="M 81.683594 279.742188 L 99.710938 279.742188 L 99.710938 240.773438 L 81.683594 240.773438 Z M 81.683594 279.742188 "/>
</g>
<g clip-path="url(#clip8)" clip-rule="nonzero">
<path style="fill:none;stroke-width:0.75;stroke-linecap:round;stroke-linejoin:round;stroke:rgb(0%,0%,0%);stroke-opacity:1;stroke-miterlimit:10;" d="M 81.683594 279.742188 L 99.710938 279.742188 L 99.710938 240.773438 L 81.683594 240.773438 Z M 81.683594 279.742188 "/>
</g>
<g clip-path="url(#clip9)" clip-rule="nonzero">
<path style=" stroke:none;fill-rule:nonzero;fill:rgb(100%,100%,100%);fill-opacity:1;" d="M 101.71875 279.742188 L 119.746094 279.742188 L 119.746094 260.3125 L 101.71875 260.3125 Z M 101.71875 279.742188 "/>
</g>
<g clip-path="url(#clip10)" clip-rule="nonzero">
<path style="fill:none;stroke-width:0.75;stroke-linecap:round;stroke-linejoin:round;stroke:rgb(0%,0%,0%);stroke-opacity:1;stroke-miterlimit:10;" d="M 101.71875 279.742188 L 119.746094 279.742188 L 119.746094 260.3125 L 101.71875 260.3125 Z M 101.71875 279.742188 "/>
</g>
<g clip-path="url(#clip11)" clip-rule="nonzero">
<path style=" stroke:none;fill-rule:nonzero;fill:rgb(100%,100%,100%);fill-opacity:1;" d="M 121.75 279.742188 L 139.777344 279.742188 L 139.777344 265.183594 L 121.75 265.183594 Z M 121.75 279.742188 "/>
</g>
<g clip-path="url(#clip12)" clip-rule="nonzero">
<path style="fill:none;stroke-width:0.75;stroke-linecap:round;stroke-linejoin:round;stroke:rgb(0%,0%,0%);stroke-opacity:1;stroke-miterlimit:10;" d="M 121.75 279.742188 L 139.777344 279.742188 L 139.777344 265.183594 L 121.75 265.183594 Z M 121.75 279.742188 "/>
</g>
<g clip-path="url(#clip13)" clip-rule="nonzero">
<path style=" stroke:none;fill-rule:nonzero;fill:rgb(100%,100%,100%);fill-opacity:1;" d="M 141.78125 279.742188 L 159.808594 279.742188 L 159.808594 270.121094 L 141.78125 270.121094 Z M 141.78125 279.742188 "/>
</g>
<g clip-path="url(#clip14)" clip-rule="nonzero">
<path style="fill:none;stroke-width:0.75;stroke-linecap:round;stroke-linejoin:round;stroke:rgb(0%,0%,0%);stroke-opacity:1;stroke-miterlimit:10;" d="M 141.78125 279.742188 L 159.808594 279.742188 L 159.808594 270.121094 L 141.78125 270.121094 Z M 141.78125 279.742188 "/>
</g>
<g clip-path="url(#clip15)" clip-rule="nonzero">
<path style=" stroke:none;fill-rule:nonzero;fill:rgb(100%,100%,100%);fill-opacity:1;" d="M 161.816406 279.742188 L 179.84375 279.742188 L 179.84375 273.28125 L 161.816406 273.28125 Z M 161.816406 279.742188 "/>
</g>
<g clip-path="url(#clip16)" clip-rule="nonzero">
<path style="fill:none;stroke-width:0.75;stroke-linecap:round;stroke-linejoin:round;stroke:rgb(0%,0%,0%);stroke-opacity:1;stroke-miterlimit:10;" d="M 161.816406 279.742188 L 179.84375 279.742188 L 179.84375 273.28125 L 161.816406 273.28125 Z M 161.816406 279.742188 "/>
</g>
<g clip-path="url(#clip17)" clip-rule="nonzero">
<path style=" stroke:none;fill-rule:nonzero;fill:rgb(100%,100%,100%);fill-opacity:1;" d="M 181.847656 279.742188 L 199.875 279.742188 L 199.875 275.582031 L 181.847656 275.582031 Z M 181.847656 279.742188 "/>
</g>
<g clip-path="url(#clip18)" clip-rule="nonzero">
<path style="fill:none;stroke-width:0.75;stroke-linecap:round;stroke-linejoin:round;stroke:rgb(0%,0%,0%);stroke-opacity:1;stroke-miterlimit:10;" d="M 181.847656 279.742188 L 199.875 279.742188 L 199.875 275.582031 L 181.847656 275.582031 Z M 181.847656 279.742188 "/>
</g>
<g clip-path="url(#clip19)" clip-rule="nonzero">
<path style=" stroke:none;fill-rule:nonzero;fill:rgb(100%,100%,100%);fill-opacity:1;" d="M 201.878906 279.742188 L 219.90625 279.742188 L 219.90625 278.828125 L 201.878906 278.828125 Z M 201.878906 279.742188 "/>
</g>
<g clip-path="url(#clip20)" clip-rule="nonzero">
<path style="fill:none;stroke-width:0.75;stroke-linecap:round;stroke-linejoin:round;stroke:rgb(0%,0%,0%);stroke-opacity:1;stroke-miterlimit:10;" d="M 201.878906 279.742188 L 219.90625 279.742188 L 219.90625 278.828125 L 201.878906 278.828125 Z M 201.878906 279.742188 "/>
</g>
<g clip-path="url(#clip21)" clip-rule="nonzero">
<path style=" stroke:none;fill-rule:nonzero;fill:rgb(100%,100%,100%);fill-opacity:1;" d="M 221.914062 279.742188 L 239.941406 279.742188 L 239.941406 279.074219 L 221.914062 279.074219 Z M 221.914062 279.742188 "/>
</g>
<g clip-path="url(#clip22)" clip-rule="nonzero">
<path style="fill:none;stroke-width:0.75;stroke-linecap:round;stroke-linejoin:round;stroke:rgb(0%,0%,0%);stroke-opacity:1;stroke-miterlimit:10;" d="M 221.914062 279.742188 L 239.941406 279.742188 L 239.941406 279.074219 L 221.914062 279.074219 Z M 221.914062 279.742188 "/>
</g>
<g clip-path="url(#clip23)" clip-rule="nonzero">
<path style=" stroke:none;fill-rule:nonzero;fill:rgb(100%,100%,100%);fill-opacity:1;" d="M 241.945312 279.742188 L 259.972656 279.742188 L 259.972656 279.574219 L 241.945312 279.574219 Z M 241.945312 279.742188 "/>
</g>
<g clip-path="url(#clip24)" clip-rule="nonzero">
<path style="fill:none;stroke-width:0.75;stroke-linecap:round;stroke-linejoin:round;stroke:rgb(0%,0%,0%);stroke-opacity:1;stroke-miterlimit:10;" d="M 241.945312 279.742188 L 259.972656 279.742188 L 259.972656 279.574219 L 241.945312 279.574219 Z M 241.945312 279.742188 "/>
</g>
<path style="fill:none;stroke-width:0.75;stroke-linecap:round;stroke-linejoin:round;stroke:rgb(0%,0%,0%);stroke-opacity:1;stroke-miterlimit:10;" d="M 30.601562 279.742188 L 270.992188 279.742188 L 270.992188 9.90625 L 30.601562 9.90625 Z M 30.601562 279.742188 "/>
</g>
</svg>
