<?xml version="1.0" encoding="UTF-8"?>
<svg xmlns="http://www.w3.org/2000/svg" xmlns:xlink="http://www.w3.org/1999/xlink" width="288pt" height="288pt" viewBox="0 0 288 288">
<defs>
<g>
<g id="glyph-0-0">
<path d="M 2.71875 -3 L 0.4375 -3 L 0.4375 -2.296875 L 2.71875 -2.296875 Z M 2.71875 -3 "/>
</g>
<g id="glyph-0-1">
<path d="M 4.859375 -0.828125 L 1.28125 -0.828125 C 1.359375 -1.40625 1.671875 -1.78125 2.5 -2.28125 L 3.46875 -2.828125 C 4.40625 -3.34375 4.90625 -4.0625 4.90625 -4.90625 C 4.90625 -5.484375 4.671875 -6.03125 4.265625 -6.40625 C 3.859375 -6.765625 3.375 -6.9375 2.71875 -6.9375 C 1.859375 -6.9375 1.21875 -6.625 0.84375 -6.03125 C 0.609375 -5.671875 0.5 -5.234375 0.484375 -4.53125 L 1.328125 -4.53125 C 1.359375 -5.015625 1.40625 -5.28125 1.53125 -5.515625 C 1.75 -5.9375 2.1875 -6.203125 2.703125 -6.203125 C 3.46875 -6.203125 4.03125 -5.640625 4.03125 -4.890625 C 4.03125 -4.34375 3.71875 -3.859375 3.125 -3.515625 L 2.234375 -3 C 0.8125 -2.171875 0.40625 -1.53125 0.328125 -0.015625 L 4.859375 -0.015625 Z M 4.859375 -0.828125 "/>
</g>
<g id="glyph-0-2">
<path d="M 2.640625 -6.9375 C 2 -6.9375 1.421875 -6.65625 1.078125 -6.171875 C 0.640625 -5.5625 0.40625 -4.640625 0.40625 -3.359375 C 0.40625 -1.015625 1.1875 0.21875 2.640625 0.21875 C 4.078125 0.21875 4.859375 -1.015625 4.859375 -3.296875 C 4.859375 -4.640625 4.65625 -5.546875 4.203125 -6.171875 C 3.84375 -6.65625 3.28125 -6.9375 2.640625 -6.9375 Z M 2.640625 -6.1875 C 3.546875 -6.1875 4 -5.25 4 -3.375 C 4 -1.40625 3.5625 -0.484375 2.625 -0.484375 C 1.734375 -0.484375 1.28125 -1.4375 1.28125 -3.34375 C 1.28125 -5.25 1.734375 -6.1875 2.640625 -6.1875 Z M 2.640625 -6.1875 "/>
</g>
<g id="glyph-0-3">
<path d="M 2.484375 -4.9375 L 2.484375 0 L 3.328125 0 L 3.328125 -6.9375 L 2.765625 -6.9375 C 2.46875 -5.875 2.28125 -5.734375 0.984375 -5.5625 L 0.984375 -4.9375 Z M 2.484375 -4.9375 "/>
</g>
<g id="glyph-1-0">
<path d="M 3.109375 -6.1875 L 3.109375 0 L 4.15625 0 L 4.15625 -8.671875 L 3.46875 -8.671875 C 3.09375 -7.34375 2.859375 -7.15625 1.21875 -6.953125 L 1.21875 -6.1875 Z M 3.109375 -6.1875 "/>
</g>
<g id="glyph-1-1">
<path d="M 6.078125 -1.046875 L 1.59375 -1.046875 C 1.703125 -1.765625 2.09375 -2.21875 3.125 -2.859375 L 4.328125 -3.53125 C 5.515625 -4.1875 6.125 -5.078125 6.125 -6.140625 C 6.125 -6.859375 5.84375 -7.53125 5.34375 -8 C 4.84375 -8.453125 4.21875 -8.671875 3.40625 -8.671875 C 2.328125 -8.671875 1.53125 -8.296875 1.0625 -7.546875 C 0.75 -7.09375 0.625 -6.546875 0.59375 -5.671875 L 1.65625 -5.671875 C 1.6875 -6.265625 1.765625 -6.609375 1.90625 -6.90625 C 2.1875 -7.421875 2.734375 -7.75 3.375 -7.75 C 4.328125 -7.75 5.046875 -7.0625 5.046875 -6.125 C 5.046875 -5.421875 4.65625 -4.828125 3.90625 -4.390625 L 2.796875 -3.75 C 1.015625 -2.71875 0.5 -1.90625 0.40625 -0.015625 L 6.078125 -0.015625 Z M 6.078125 -1.046875 "/>
</g>
<g id="glyph-1-2">
<path d="M 2.65625 -4 L 3.234375 -4 C 4.375 -4 4.984375 -3.453125 4.984375 -2.40625 C 4.984375 -1.3125 4.328125 -0.65625 3.234375 -0.65625 C 2.078125 -0.65625 1.515625 -1.25 1.4375 -2.515625 L 0.390625 -2.515625 C 0.4375 -1.828125 0.546875 -1.375 0.75 -0.984375 C 1.203125 -0.140625 2.03125 0.28125 3.1875 0.28125 C 4.9375 0.28125 6.078125 -0.78125 6.078125 -2.421875 C 6.078125 -3.53125 5.65625 -4.125 4.625 -4.484375 C 5.421875 -4.8125 5.8125 -5.40625 5.8125 -6.28125 C 5.8125 -7.78125 4.84375 -8.671875 3.234375 -8.671875 C 1.515625 -8.671875 0.59375 -7.71875 0.5625 -5.875 L 1.625 -5.875 C 1.625 -6.40625 1.6875 -6.703125 1.8125 -6.96875 C 2.046875 -7.46875 2.578125 -7.75 3.234375 -7.75 C 4.171875 -7.75 4.734375 -7.1875 4.734375 -6.25 C 4.734375 -5.640625 4.53125 -5.265625 4.0625 -5.0625 C 3.765625 -4.9375 3.390625 -4.890625 2.65625 -4.890625 Z M 2.65625 -4 "/>
</g>
<g id="glyph-1-3">
<path d="M 3.921875 -2.09375 L 3.921875 0 L 4.984375 0 L 4.984375 -2.09375 L 6.234375 -2.09375 L 6.234375 -3.046875 L 4.984375 -3.046875 L 4.984375 -8.671875 L 4.203125 -8.671875 L 0.34375 -3.21875 L 0.34375 -2.09375 Z M 3.921875 -3.046875 L 1.265625 -3.046875 L 3.921875 -6.875 Z M 3.921875 -3.046875 "/>
</g>
<g id="glyph-1-4">
<path d="M 5.71875 -8.515625 L 1.3125 -8.515625 L 0.6875 -3.875 L 1.65625 -3.875 C 2.140625 -4.46875 2.5625 -4.671875 3.234375 -4.671875 C 4.375 -4.671875 5.078125 -3.890625 5.078125 -2.625 C 5.078125 -1.40625 4.375 -0.65625 3.21875 -0.65625 C 2.296875 -0.65625 1.734375 -1.125 1.46875 -2.09375 L 0.421875 -2.09375 C 0.5625 -1.390625 0.6875 -1.0625 0.9375 -0.75 C 1.421875 -0.09375 2.28125 0.28125 3.234375 0.28125 C 4.953125 0.28125 6.15625 -0.96875 6.15625 -2.765625 C 6.15625 -4.453125 5.046875 -5.609375 3.40625 -5.609375 C 2.8125 -5.609375 2.328125 -5.453125 1.84375 -5.09375 L 2.171875 -7.46875 L 5.71875 -7.46875 Z M 5.71875 -8.515625 "/>
</g>
<g id="glyph-1-5">
<path d="M 5.96875 -6.421875 C 5.765625 -7.84375 4.859375 -8.671875 3.5625 -8.671875 C 2.625 -8.671875 1.78125 -8.21875 1.28125 -7.4375 C 0.75 -6.59375 0.515625 -5.53125 0.515625 -3.953125 C 0.515625 -2.5 0.71875 -1.578125 1.234375 -0.796875 C 1.6875 -0.09375 2.4375 0.28125 3.375 0.28125 C 4.984375 0.28125 6.15625 -0.9375 6.15625 -2.625 C 6.15625 -4.21875 5.078125 -5.359375 3.546875 -5.359375 C 2.71875 -5.359375 2.046875 -5.046875 1.59375 -4.40625 C 1.609375 -6.546875 2.28125 -7.734375 3.484375 -7.734375 C 4.234375 -7.734375 4.75 -7.265625 4.921875 -6.421875 Z M 3.421875 -4.421875 C 4.4375 -4.421875 5.078125 -3.703125 5.078125 -2.546875 C 5.078125 -1.453125 4.359375 -0.65625 3.390625 -0.65625 C 2.40625 -0.65625 1.65625 -1.484375 1.65625 -2.59375 C 1.65625 -3.671875 2.375 -4.421875 3.421875 -4.421875 Z M 3.421875 -4.421875 "/>
</g>
<g id="glyph-1-6">
<path d="M 6.234375 -8.515625 L 0.546875 -8.515625 L 0.546875 -7.46875 L 5.140625 -7.46875 C 3.125 -4.578125 2.296875 -2.796875 1.65625 0 L 2.78125 0 C 3.25 -2.71875 4.3125 -5.0625 6.234375 -7.625 Z M 6.234375 -8.515625 "/>
</g>
<g id="glyph-1-7">
<path d="M 4.6875 -4.578125 C 5.578125 -5.109375 5.859375 -5.546875 5.859375 -6.359375 C 5.859375 -7.734375 4.8125 -8.671875 3.296875 -8.671875 C 1.796875 -8.671875 0.75 -7.734375 0.75 -6.375 C 0.75 -5.546875 1.015625 -5.125 1.890625 -4.578125 C 0.921875 -4.078125 0.4375 -3.375 0.4375 -2.40625 C 0.4375 -0.828125 1.609375 0.28125 3.296875 0.28125 C 4.984375 0.28125 6.15625 -0.828125 6.15625 -2.40625 C 6.15625 -3.375 5.671875 -4.078125 4.6875 -4.578125 Z M 3.296875 -7.734375 C 4.203125 -7.734375 4.78125 -7.203125 4.78125 -6.34375 C 4.78125 -5.515625 4.1875 -4.984375 3.296875 -4.984375 C 2.40625 -4.984375 1.828125 -5.515625 1.828125 -6.359375 C 1.828125 -7.203125 2.40625 -7.734375 3.296875 -7.734375 Z M 3.296875 -4.09375 C 4.359375 -4.09375 5.078125 -3.390625 5.078125 -2.390625 C 5.078125 -1.34375 4.375 -0.65625 3.28125 -0.65625 C 2.25 -0.65625 1.53125 -1.375 1.53125 -2.375 C 1.53125 -3.40625 2.234375 -4.09375 3.296875 -4.09375 Z M 3.296875 -4.09375 "/>
</g>
<g id="glyph-1-8">
<path d="M 0.640625 -1.984375 C 0.84375 -0.5625 1.75 0.28125 3.046875 0.28125 C 4 0.28125 4.84375 -0.1875 5.34375 -0.953125 C 5.875 -1.8125 6.109375 -2.875 6.109375 -4.4375 C 6.109375 -5.90625 5.890625 -6.828125 5.390625 -7.59375 C 4.921875 -8.296875 4.171875 -8.671875 3.234375 -8.671875 C 1.625 -8.671875 0.453125 -7.46875 0.453125 -5.78125 C 0.453125 -4.1875 1.53125 -3.0625 3.078125 -3.0625 C 3.875 -3.0625 4.46875 -3.34375 5.015625 -4.015625 C 5 -1.84375 4.328125 -0.65625 3.125 -0.65625 C 2.375 -0.65625 1.859375 -1.140625 1.6875 -1.984375 Z M 3.234375 -7.75 C 4.21875 -7.75 4.953125 -6.921875 4.953125 -5.8125 C 4.953125 -4.734375 4.234375 -4 3.1875 -4 C 2.171875 -4 1.53125 -4.71875 1.53125 -5.875 C 1.53125 -6.953125 2.25 -7.75 3.234375 -7.75 Z M 3.234375 -7.75 "/>
</g>
<g id="glyph-1-9">
<path d="M 3.296875 -8.671875 C 2.515625 -8.671875 1.78125 -8.3125 1.34375 -7.734375 C 0.796875 -6.953125 0.515625 -5.8125 0.515625 -4.203125 C 0.515625 -1.265625 1.46875 0.28125 3.296875 0.28125 C 5.09375 0.28125 6.078125 -1.265625 6.078125 -4.125 C 6.078125 -5.8125 5.8125 -6.9375 5.25 -7.734375 C 4.8125 -8.328125 4.109375 -8.671875 3.296875 -8.671875 Z M 3.296875 -7.734375 C 4.4375 -7.734375 5 -6.578125 5 -4.21875 C 5 -1.75 4.453125 -0.59375 3.28125 -0.59375 C 2.15625 -0.59375 1.59375 -1.796875 1.59375 -4.1875 C 1.59375 -6.578125 2.15625 -7.734375 3.296875 -7.734375 Z M 3.296875 -7.734375 "/>
</g>
</g>
<clipPath id="clip-0">
<path clip-rule="nonzero" d="M 35.007812 22.507812 L 270.992188 22.507812 L 270.992188 258.492188 L 35.007812 258.492188 Z M 35.007812 22.507812 "/>
</clipPath>
<clipPath id="clip-1">
<path clip-rule="nonzero" d="M 60 22.507812 L 62 22.507812 L 62 258.492188 L 60 258.492188 Z M 60 22.507812 "/>
</clipPath>
<clipPath id="clip-2">
<path clip-rule="nonzero" d="M 120 22.507812 L 122 22.507812 L 122 258.492188 L 120 258.492188 Z M 120 22.507812 "/>
</clipPath>
<clipPath id="clip-3">
<path clip-rule="nonzero" d="M 181 22.507812 L 183 22.507812 L 183 258.492188 L 181 258.492188 Z M 181 22.507812 "/>
</clipPath>
<clipPath id="clip-4">
<path clip-rule="nonzero" d="M 242 22.507812 L 243 22.507812 L 243 258.492188 L 242 258.492188 Z M 242 22.507812 "/>
</clipPath>
<clipPath id="clip-5">
<path clip-rule="nonzero" d="M 35.007812 255 L 270.992188 255 L 270.992188 257 L 35.007812 257 Z M 35.007812 255 "/>
</clipPath>
<clipPath id="clip-6">
<path clip-rule="nonzero" d="M 35.007812 195 L 270.992188 195 L 270.992188 196 L 35.007812 196 Z M 35.007812 195 "/>
</clipPath>
<clipPath id="clip-7">
<path clip-rule="nonzero" d="M 35.007812 134 L 270.992188 134 L 270.992188 136 L 35.007812 136 Z M 35.007812 134 "/>
</clipPath>
<clipPath id="clip-8">
<path clip-rule="nonzero" d="M 35.007812 73 L 270.992188 73 L 270.992188 75 L 35.007812 75 Z M 35.007812 73 "/>
</clipPath>
<clipPath id="clip-9">
<path clip-rule="nonzero" d="M 35.007812 134 L 270.992188 134 L 270.992188 136 L 35.007812 136 Z M 35.007812 134 "/>
</clipPath>
<clipPath id="clip-10">
<path clip-rule="nonzero" d="M 120 22.507812 L 122 22.507812 L 122 258.492188 L 120 258.492188 Z M 120 22.507812 "/>
</clipPath>
</defs>
<rect x="-28.8" y="-28.8" width="345.6" height="345.6" fill="rgb(100%, 100%, 100%)" fill-opacity="1"/>
<g clip-path="url(#clip-0)">
<path fill-rule="nonzero" fill="rgb(82.745098%, 82.745098%, 82.745098%)" fill-opacity="1" d="M 35.007812 258.492188 L 270.992188 258.492188 L 270.992188 22.507812 L 35.007812 22.507812 Z M 35.007812 258.492188 "/>
</g>
<path fill="none" stroke-width="0.75" stroke-linecap="round" stroke-linejoin="round" stroke="rgb(0%, 0%, 0%)" stroke-opacity="1" stroke-miterlimit="10" d="M 60.664062 22.507812 L 60.664062 16.839844 "/>
<path fill="none" stroke-width="0.75" stroke-linecap="round" stroke-linejoin="round" stroke="rgb(0%, 0%, 0%)" stroke-opacity="1" stroke-miterlimit="10" d="M 121.273438 22.507812 L 121.273438 16.839844 "/>
<path fill="none" stroke-width="0.75" stroke-linecap="round" stroke-linejoin="round" stroke="rgb(0%, 0%, 0%)" stroke-opacity="1" stroke-miterlimit="10" d="M 181.878906 22.507812 L 181.878906 16.839844 "/>
<path fill="none" stroke-width="0.75" stroke-linecap="round" stroke-linejoin="round" stroke="rgb(0%, 0%, 0%)" stroke-opacity="1" stroke-miterlimit="10" d="M 242.484375 22.507812 L 242.484375 16.839844 "/>
<path fill="none" stroke-width="0.75" stroke-linecap="round" stroke-linejoin="round" stroke="rgb(0%, 0%, 0%)" stroke-opacity="1" stroke-miterlimit="10" d="M 35.007812 256.058594 L 29.339844 256.058594 "/>
<path fill="none" stroke-width="0.75" stroke-linecap="round" stroke-linejoin="round" stroke="rgb(0%, 0%, 0%)" stroke-opacity="1" stroke-miterlimit="10" d="M 35.007812 195.453125 L 29.339844 195.453125 "/>
<path fill="none" stroke-width="0.75" stroke-linecap="round" stroke-linejoin="round" stroke="rgb(0%, 0%, 0%)" stroke-opacity="1" stroke-miterlimit="10" d="M 35.007812 134.847656 L 29.339844 134.847656 "/>
<path fill="none" stroke-width="0.75" stroke-linecap="round" stroke-linejoin="round" stroke="rgb(0%, 0%, 0%)" stroke-opacity="1" stroke-miterlimit="10" d="M 35.007812 74.238281 L 29.339844 74.238281 "/>
<g fill="rgb(0%, 0%, 0%)" fill-opacity="1">
<use xlink:href="#glyph-0-0" x="5.667969" y="259.555664"/>
<use xlink:href="#glyph-0-1" x="8.667969" y="259.555664"/>
<use xlink:href="#glyph-0-2" x="13.667969" y="259.555664"/>
<use xlink:href="#glyph-0-2" x="18.667969" y="259.555664"/>
</g>
<g fill="rgb(0%, 0%, 0%)" fill-opacity="1">
<use xlink:href="#glyph-0-0" x="5.667969" y="198.950195"/>
<use xlink:href="#glyph-0-3" x="8.667969" y="198.950195"/>
<use xlink:href="#glyph-0-2" x="13.667969" y="198.950195"/>
<use xlink:href="#glyph-0-2" x="18.667969" y="198.950195"/>
</g>
<g fill="rgb(0%, 0%, 0%)" fill-opacity="1">
<use xlink:href="#glyph-0-2" x="18.667969" y="138.344727"/>
</g>
<g fill="rgb(0%, 0%, 0%)" fill-opacity="1">
<use xlink:href="#glyph-0-3" x="8.667969" y="77.735352"/>
<use xlink:href="#glyph-0-2" x="13.667969" y="77.735352"/>
<use xlink:href="#glyph-0-2" x="18.667969" y="77.735352"/>
</g>
<path fill="none" stroke-width="0.75" stroke-linecap="round" stroke-linejoin="round" stroke="rgb(0%, 0%, 0%)" stroke-opacity="1" stroke-miterlimit="10" d="M 60.664062 258.492188 L 60.664062 264.160156 "/>
<path fill="none" stroke-width="0.75" stroke-linecap="round" stroke-linejoin="round" stroke="rgb(0%, 0%, 0%)" stroke-opacity="1" stroke-miterlimit="10" d="M 121.273438 258.492188 L 121.273438 264.160156 "/>
<path fill="none" stroke-width="0.75" stroke-linecap="round" stroke-linejoin="round" stroke="rgb(0%, 0%, 0%)" stroke-opacity="1" stroke-miterlimit="10" d="M 181.878906 258.492188 L 181.878906 264.160156 "/>
<path fill="none" stroke-width="0.75" stroke-linecap="round" stroke-linejoin="round" stroke="rgb(0%, 0%, 0%)" stroke-opacity="1" stroke-miterlimit="10" d="M 242.484375 258.492188 L 242.484375 264.160156 "/>
<g fill="rgb(0%, 0%, 0%)" fill-opacity="1">
<use xlink:href="#glyph-0-0" x="51.664062" y="276.829102"/>
<use xlink:href="#glyph-0-3" x="54.664062" y="276.829102"/>
<use xlink:href="#glyph-0-2" x="59.664062" y="276.829102"/>
<use xlink:href="#glyph-0-2" x="64.664062" y="276.829102"/>
</g>
<g fill="rgb(0%, 0%, 0%)" fill-opacity="1">
<use xlink:href="#glyph-0-2" x="118.773438" y="276.829102"/>
</g>
<g fill="rgb(0%, 0%, 0%)" fill-opacity="1">
<use xlink:href="#glyph-0-3" x="174.378906" y="276.829102"/>
<use xlink:href="#glyph-0-2" x="179.378906" y="276.829102"/>
<use xlink:href="#glyph-0-2" x="184.378906" y="276.829102"/>
</g>
<g fill="rgb(0%, 0%, 0%)" fill-opacity="1">
<use xlink:href="#glyph-0-1" x="234.984375" y="276.829102"/>
<use xlink:href="#glyph-0-2" x="239.984375" y="276.829102"/>
<use xlink:href="#glyph-0-2" x="244.984375" y="276.829102"/>
</g>
<path fill="none" stroke-width="0.75" stroke-linecap="round" stroke-linejoin="round" stroke="rgb(0%, 0%, 0%)" stroke-opacity="1" stroke-miterlimit="10" d="M 270.992188 256.058594 L 276.660156 256.058594 "/>
<path fill="none" stroke-width="0.75" stroke-linecap="round" stroke-linejoin="round" stroke="rgb(0%, 0%, 0%)" stroke-opacity="1" stroke-miterlimit="10" d="M 270.992188 195.453125 L 276.660156 195.453125 "/>
<path fill="none" stroke-width="0.75" stroke-linecap="round" stroke-linejoin="round" stroke="rgb(0%, 0%, 0%)" stroke-opacity="1" stroke-miterlimit="10" d="M 270.992188 134.847656 L 276.660156 134.847656 "/>
<path fill="none" stroke-width="0.75" stroke-linecap="round" stroke-linejoin="round" stroke="rgb(0%, 0%, 0%)" stroke-opacity="1" stroke-miterlimit="10" d="M 270.992188 74.238281 L 276.660156 74.238281 "/>
<g clip-path="url(#clip-1)">
<path fill="none" stroke-width="0.75" stroke-linecap="round" stroke-linejoin="round" stroke="rgb(100%, 100%, 100%)" stroke-opacity="1" stroke-miterlimit="10" d="M 60.664062 258.492188 L 60.664062 22.507812 "/>
</g>
<g clip-path="url(#clip-2)">
<path fill="none" stroke-width="0.75" stroke-linecap="round" stroke-linejoin="round" stroke="rgb(100%, 100%, 100%)" stroke-opacity="1" stroke-miterlimit="10" d="M 121.273438 258.492188 L 121.273438 22.507812 "/>
</g>
<g clip-path="url(#clip-3)">
<path fill="none" stroke-width="0.75" stroke-linecap="round" stroke-linejoin="round" stroke="rgb(100%, 100%, 100%)" stroke-opacity="1" stroke-miterlimit="10" d="M 181.878906 258.492188 L 181.878906 22.507812 "/>
</g>
<g clip-path="url(#clip-4)">
<path fill="none" stroke-width="0.75" stroke-linecap="round" stroke-linejoin="round" stroke="rgb(100%, 100%, 100%)" stroke-opacity="1" stroke-miterlimit="10" d="M 242.484375 258.492188 L 242.484375 22.507812 "/>
</g>
<g clip-path="url(#clip-5)">
<path fill="none" stroke-width="0.75" stroke-linecap="round" stroke-linejoin="round" stroke="rgb(100%, 100%, 100%)" stroke-opacity="1" stroke-miterlimit="10" d="M 35.007812 256.058594 L 270.992188 256.058594 "/>
</g>
<g clip-path="url(#clip-6)">
<path fill="none" stroke-width="0.75" stroke-linecap="round" stroke-linejoin="round" stroke="rgb(100%, 100%, 100%)" stroke-opacity="1" stroke-miterlimit="10" d="M 35.007812 195.453125 L 270.992188 195.453125 "/>
</g>
<g clip-path="url(#clip-7)">
<path fill="none" stroke-width="0.75" stroke-linecap="round" stroke-linejoin="round" stroke="rgb(100%, 100%, 100%)" stroke-opacity="1" stroke-miterlimit="10" d="M 35.007812 134.847656 L 270.992188 134.847656 "/>
</g>
<g clip-path="url(#clip-8)">
<path fill="none" stroke-width="0.75" stroke-linecap="round" stroke-linejoin="round" stroke="rgb(100%, 100%, 100%)" stroke-opacity="1" stroke-miterlimit="10" d="M 35.007812 74.238281 L 270.992188 74.238281 "/>
</g>
<g clip-path="url(#clip-9)">
<path fill="none" stroke-width="0.75" stroke-linecap="round" stroke-linejoin="round" stroke="rgb(0%, 0%, 0%)" stroke-opacity="1" stroke-miterlimit="10" d="M 35.007812 134.847656 L 270.992188 134.847656 "/>
</g>
<g clip-path="url(#clip-10)">
<path fill="none" stroke-width="0.75" stroke-linecap="round" stroke-linejoin="round" stroke="rgb(0%, 0%, 0%)" stroke-opacity="1" stroke-miterlimit="10" d="M 121.273438 258.492188 L 121.273438 22.507812 "/>
</g>
<path fill-rule="nonzero" fill="rgb(0%, 0%, 0%)" fill-opacity="1" stroke-width="0.75" stroke-linecap="round" stroke-linejoin="round" stroke="rgb(0%, 0%, 0%)" stroke-opacity="1" stroke-miterlimit="10" d="M 108.777344 179.027344 C 108.777344 181.695312 104.777344 181.695312 104.777344 179.027344 C 104.777344 176.363281 108.777344 176.363281 108.777344 179.027344 "/>
<path fill-rule="nonzero" fill="rgb(0%, 0%, 0%)" fill-opacity="1" stroke-width="0.75" stroke-linecap="round" stroke-linejoin="round" stroke="rgb(0%, 0%, 0%)" stroke-opacity="1" stroke-miterlimit="10" d="M 106.878906 184.1875 C 106.878906 186.855469 102.878906 186.855469 102.878906 184.1875 C 102.878906 181.523438 106.878906 181.523438 106.878906 184.1875 "/>
<path fill-rule="nonzero" fill="rgb(0%, 0%, 0%)" fill-opacity="1" stroke-width="0.75" stroke-linecap="round" stroke-linejoin="round" stroke="rgb(0%, 0%, 0%)" stroke-opacity="1" stroke-miterlimit="10" d="M 99.578125 193.578125 C 99.578125 196.242188 95.578125 196.242188 95.578125 193.578125 C 95.578125 190.910156 99.578125 190.910156 99.578125 193.578125 "/>
<path fill-rule="nonzero" fill="rgb(0%, 0%, 0%)" fill-opacity="1" stroke-width="0.75" stroke-linecap="round" stroke-linejoin="round" stroke="rgb(0%, 0%, 0%)" stroke-opacity="1" stroke-miterlimit="10" d="M 118.515625 87.421875 C 118.515625 90.089844 114.515625 90.089844 114.515625 87.421875 C 114.515625 84.757812 118.515625 84.757812 118.515625 87.421875 "/>
<path fill-rule="nonzero" fill="rgb(0%, 0%, 0%)" fill-opacity="1" stroke-width="0.75" stroke-linecap="round" stroke-linejoin="round" stroke="rgb(0%, 0%, 0%)" stroke-opacity="1" stroke-miterlimit="10" d="M 114.367188 88.675781 C 114.367188 91.339844 110.367188 91.339844 110.367188 88.675781 C 110.367188 86.007812 114.367188 86.007812 114.367188 88.675781 "/>
<path fill-rule="nonzero" fill="rgb(0%, 0%, 0%)" fill-opacity="1" stroke-width="0.75" stroke-linecap="round" stroke-linejoin="round" stroke="rgb(0%, 0%, 0%)" stroke-opacity="1" stroke-miterlimit="10" d="M 56.671875 90.679688 C 56.671875 93.34375 52.671875 93.34375 52.671875 90.679688 C 52.671875 88.011719 56.671875 88.011719 56.671875 90.679688 "/>
<path fill-rule="nonzero" fill="rgb(0%, 0%, 0%)" fill-opacity="1" stroke-width="0.75" stroke-linecap="round" stroke-linejoin="round" stroke="rgb(0%, 0%, 0%)" stroke-opacity="1" stroke-miterlimit="10" d="M 59.140625 87.46875 C 59.140625 90.132812 55.140625 90.132812 55.140625 87.46875 C 55.140625 84.800781 59.140625 84.800781 59.140625 87.46875 "/>
<path fill-rule="nonzero" fill="rgb(0%, 0%, 0%)" fill-opacity="1" stroke-width="0.75" stroke-linecap="round" stroke-linejoin="round" stroke="rgb(0%, 0%, 0%)" stroke-opacity="1" stroke-miterlimit="10" d="M 253.328125 127.394531 C 253.328125 130.0625 249.328125 130.0625 249.328125 127.394531 C 249.328125 124.730469 253.328125 124.730469 253.328125 127.394531 "/>
<path fill-rule="nonzero" fill="rgb(0%, 0%, 0%)" fill-opacity="1" stroke-width="0.75" stroke-linecap="round" stroke-linejoin="round" stroke="rgb(0%, 0%, 0%)" stroke-opacity="1" stroke-miterlimit="10" d="M 247.097656 127.101562 C 247.097656 129.765625 243.097656 129.765625 243.097656 127.101562 C 243.097656 124.433594 247.097656 124.433594 247.097656 127.101562 "/>
<path fill-rule="nonzero" fill="rgb(0%, 0%, 0%)" fill-opacity="1" stroke-width="0.75" stroke-linecap="round" stroke-linejoin="round" stroke="rgb(0%, 0%, 0%)" stroke-opacity="1" stroke-miterlimit="10" d="M 135.445312 137.410156 C 135.445312 140.078125 131.445312 140.078125 131.445312 137.410156 C 131.445312 134.742188 135.445312 134.742188 135.445312 137.410156 "/>
<path fill-rule="nonzero" fill="rgb(0%, 0%, 0%)" fill-opacity="1" stroke-width="0.75" stroke-linecap="round" stroke-linejoin="round" stroke="rgb(0%, 0%, 0%)" stroke-opacity="1" stroke-miterlimit="10" d="M 126.152344 121.539062 C 126.152344 124.203125 122.152344 124.203125 122.152344 121.539062 C 122.152344 118.871094 126.152344 118.871094 126.152344 121.539062 "/>
<path fill-rule="nonzero" fill="rgb(0%, 0%, 0%)" fill-opacity="1" stroke-width="0.75" stroke-linecap="round" stroke-linejoin="round" stroke="rgb(0%, 0%, 0%)" stroke-opacity="1" stroke-miterlimit="10" d="M 120.027344 119.75 C 120.027344 122.414062 116.027344 122.414062 116.027344 119.75 C 116.027344 117.082031 120.027344 117.082031 120.027344 119.75 "/>
<path fill-rule="nonzero" fill="rgb(0%, 0%, 0%)" fill-opacity="1" stroke-width="0.75" stroke-linecap="round" stroke-linejoin="round" stroke="rgb(0%, 0%, 0%)" stroke-opacity="1" stroke-miterlimit="10" d="M 118.832031 121.074219 C 118.832031 123.742188 114.832031 123.742188 114.832031 121.074219 C 114.832031 118.40625 118.832031 118.40625 118.832031 121.074219 "/>
<path fill-rule="nonzero" fill="rgb(0%, 0%, 0%)" fill-opacity="1" stroke-width="0.75" stroke-linecap="round" stroke-linejoin="round" stroke="rgb(0%, 0%, 0%)" stroke-opacity="1" stroke-miterlimit="10" d="M 78.894531 189.910156 C 78.894531 192.578125 74.894531 192.578125 74.894531 189.910156 C 74.894531 187.242188 78.894531 187.242188 78.894531 189.910156 "/>
<path fill-rule="nonzero" fill="rgb(0%, 0%, 0%)" fill-opacity="1" stroke-width="0.75" stroke-linecap="round" stroke-linejoin="round" stroke="rgb(0%, 0%, 0%)" stroke-opacity="1" stroke-miterlimit="10" d="M 129.960938 179.515625 C 129.960938 182.183594 125.960938 182.183594 125.960938 179.515625 C 125.960938 176.851562 129.960938 176.851562 129.960938 179.515625 "/>
<path fill-rule="nonzero" fill="rgb(0%, 0%, 0%)" fill-opacity="1" stroke-width="0.75" stroke-linecap="round" stroke-linejoin="round" stroke="rgb(0%, 0%, 0%)" stroke-opacity="1" stroke-miterlimit="10" d="M 140.578125 128.832031 C 140.578125 131.5 136.578125 131.5 136.578125 128.832031 C 136.578125 126.164062 140.578125 126.164062 140.578125 128.832031 "/>
<path fill-rule="nonzero" fill="rgb(0%, 0%, 0%)" fill-opacity="1" stroke-width="0.75" stroke-linecap="round" stroke-linejoin="round" stroke="rgb(0%, 0%, 0%)" stroke-opacity="1" stroke-miterlimit="10" d="M 92.140625 132.25 C 92.140625 134.917969 88.140625 134.917969 88.140625 132.25 C 88.140625 129.585938 92.140625 129.585938 92.140625 132.25 "/>
<path fill-rule="nonzero" fill="rgb(0%, 0%, 0%)" fill-opacity="1" stroke-width="0.75" stroke-linecap="round" stroke-linejoin="round" stroke="rgb(0%, 0%, 0%)" stroke-opacity="1" stroke-miterlimit="10" d="M 93.546875 129.046875 C 93.546875 131.710938 89.546875 131.710938 89.546875 129.046875 C 89.546875 126.378906 93.546875 126.378906 93.546875 129.046875 "/>
<path fill-rule="nonzero" fill="rgb(0%, 0%, 0%)" fill-opacity="1" stroke-width="0.75" stroke-linecap="round" stroke-linejoin="round" stroke="rgb(0%, 0%, 0%)" stroke-opacity="1" stroke-miterlimit="10" d="M 142.25 137.226562 C 142.25 139.890625 138.25 139.890625 138.25 137.226562 C 138.25 134.558594 142.25 134.558594 142.25 137.226562 "/>
<g fill="rgb(0%, 0%, 0%)" fill-opacity="1">
<use xlink:href="#glyph-1-0" x="109.277344" y="176.525391"/>
</g>
<g fill="rgb(0%, 0%, 0%)" fill-opacity="1">
<use xlink:href="#glyph-1-1" x="95.378906" y="181.685547"/>
</g>
<g fill="rgb(0%, 0%, 0%)" fill-opacity="1">
<use xlink:href="#glyph-1-2" x="88.078125" y="204.576172"/>
</g>
<g fill="rgb(0%, 0%, 0%)" fill-opacity="1">
<use xlink:href="#glyph-1-3" x="107.015625" y="84.919922"/>
</g>
<g fill="rgb(0%, 0%, 0%)" fill-opacity="1">
<use xlink:href="#glyph-1-4" x="102.867188" y="99.673828"/>
</g>
<g fill="rgb(0%, 0%, 0%)" fill-opacity="1">
<use xlink:href="#glyph-1-5" x="57.171875" y="101.677734"/>
</g>
<g fill="rgb(0%, 0%, 0%)" fill-opacity="1">
<use xlink:href="#glyph-1-6" x="53.640625" y="84.966797"/>
</g>
<g fill="rgb(0%, 0%, 0%)" fill-opacity="1">
<use xlink:href="#glyph-1-7" x="253.828125" y="138.392578"/>
</g>
<g fill="rgb(0%, 0%, 0%)" fill-opacity="1">
<use xlink:href="#glyph-1-8" x="235.597656" y="124.599609"/>
</g>
<g fill="rgb(0%, 0%, 0%)" fill-opacity="1">
<use xlink:href="#glyph-1-0" x="135.945312" y="148.408203"/>
<use xlink:href="#glyph-1-9" x="142.945312" y="148.408203"/>
</g>
<g fill="rgb(0%, 0%, 0%)" fill-opacity="1">
<use xlink:href="#glyph-1-0" x="126.652344" y="119.037109"/>
<use xlink:href="#glyph-1-0" x="133.652344" y="119.037109"/>
</g>
<g fill="rgb(0%, 0%, 0%)" fill-opacity="1">
<use xlink:href="#glyph-1-0" x="101.527344" y="117.248047"/>
<use xlink:href="#glyph-1-1" x="108.527344" y="117.248047"/>
</g>
<g fill="rgb(0%, 0%, 0%)" fill-opacity="1">
<use xlink:href="#glyph-1-0" x="100.332031" y="132.072266"/>
<use xlink:href="#glyph-1-2" x="107.332031" y="132.072266"/>
</g>
<g fill="rgb(0%, 0%, 0%)" fill-opacity="1">
<use xlink:href="#glyph-1-0" x="69.894531" y="187.408203"/>
<use xlink:href="#glyph-1-3" x="76.894531" y="187.408203"/>
</g>
<g fill="rgb(0%, 0%, 0%)" fill-opacity="1">
<use xlink:href="#glyph-1-0" x="111.460938" y="190.513672"/>
<use xlink:href="#glyph-1-4" x="118.460938" y="190.513672"/>
</g>
<g fill="rgb(0%, 0%, 0%)" fill-opacity="1">
<use xlink:href="#glyph-1-0" x="122.078125" y="133.080078"/>
<use xlink:href="#glyph-1-5" x="129.078125" y="133.080078"/>
</g>
<g fill="rgb(0%, 0%, 0%)" fill-opacity="1">
<use xlink:href="#glyph-1-0" x="73.640625" y="143.248047"/>
<use xlink:href="#glyph-1-6" x="80.640625" y="143.248047"/>
</g>
<g fill="rgb(0%, 0%, 0%)" fill-opacity="1">
<use xlink:href="#glyph-1-0" x="75.046875" y="126.544922"/>
<use xlink:href="#glyph-1-7" x="82.046875" y="126.544922"/>
</g>
<g fill="rgb(0%, 0%, 0%)" fill-opacity="1">
<use xlink:href="#glyph-1-0" x="142.75" y="134.724609"/>
<use xlink:href="#glyph-1-8" x="149.75" y="134.724609"/>
</g>
<path fill="none" stroke-width="0.75" stroke-linecap="round" stroke-linejoin="round" stroke="rgb(0%, 0%, 0%)" stroke-opacity="1" stroke-miterlimit="10" d="M 35.007812 258.492188 L 270.992188 258.492188 L 270.992188 22.507812 L 35.007812 22.507812 Z M 35.007812 258.492188 "/>
</svg>
